<?xml version="1.0" encoding="UTF-8"?>
<svg width="369px" height="241px" viewBox="0 0 369 241" version="1.1" xmlns="http://www.w3.org/2000/svg" xmlns:xlink="http://www.w3.org/1999/xlink">
    <!-- Generator: Sketch 59.1 (86144) - https://sketch.com -->
    <title>VRG-Black</title>
    <desc>Created with Sketch.</desc>
    <g id="Symbols" stroke="none" stroke-width="1" fill="none" fill-rule="evenodd">
        <g id="Logo-/-Normal-Long-Black" transform="translate(-1.000000, 0.000000)" fill="#1D1D1B" fill-rule="nonzero">
            <g id="VRG-Black" transform="translate(1.000000, 0.000000)">
                <polygon id="Path" points="177.096063 0.0696768707 202.622389 60.1434354 228.624158 0.0737755102"></polygon>
                <path d="M87.118631,27.2559524 C86.824775,25.6056834 86.6841395,23.9317781 86.6985204,22.2556122 C86.6985204,13.3902551 98.7300765,10.2465986 107.451981,9.12971939 C110.101069,8.90019558 113.048673,8.69526361 116.294796,8.51492347 L116.294796,0.0696768707 L0.0983673469,0.0696768707 L0.0983673469,8.52107143 C8.1030102,9.19734694 13.9948044,11.3682596 17.77375,15.0338095 C21.5526956,18.6993594 25.247619,24.7045493 28.8585204,33.0493793 L118.003929,240.610629 L125.213435,240.610629 L151.444728,179.850349 L88.7355442,32.2603912 C88.0078345,30.6592317 87.4653492,28.9802086 87.118631,27.2559524 Z" id="Path"></path>
                <path d="M154.213359,224.380017 C154.213359,219.688441 155.784504,215.666993 158.926794,212.315672 C162.069084,208.964351 165.916341,207.288007 170.468563,207.286641 C172.812985,207.286641 176.727185,208.029861 182.211165,209.516301 C182.347786,213.281584 182.416097,215.330904 182.416097,215.66426 C182.416097,216.160196 182.069762,216.406114 181.375043,216.406114 C181.045102,216.406114 180.831973,216.324141 180.731556,216.160196 C179.840785,211.635298 176.472387,209.372849 170.626361,209.372849 C167.322857,209.372849 164.565156,210.776633 162.353257,213.584201 C160.141358,216.391769 159.032676,219.775196 159.027211,223.734481 C159.027211,227.401397 160.241091,230.778676 162.668852,233.866318 C165.096613,236.95396 168.143268,238.497781 171.808818,238.497781 C174.714753,238.497781 176.861074,238.134368 178.247781,237.407543 C178.479354,237.309175 178.596165,237.061207 178.596165,236.665689 L178.546981,232.601888 L178.546981,232.255553 C178.546981,230.110598 178.414459,228.69042 178.149413,227.995017 C178.012792,227.66576 177.476553,227.401397 176.540697,227.20193 C175.816888,227.032486 175.078473,226.932978 174.335629,226.904779 C174.202423,226.904779 174.130697,226.699847 174.130697,226.289983 C174.130697,225.880119 174.196276,225.60551 174.335629,225.470255 C178.564059,225.635567 180.727457,225.718223 180.825825,225.718223 C181.088138,225.718223 182.871046,225.635567 186.174549,225.470255 C186.245677,225.694804 186.279597,225.929475 186.274966,226.164974 C186.274966,226.658861 186.207338,226.906828 186.070034,226.906828 C185.605561,226.966073 185.148719,227.074615 184.707236,227.230621 C184.186904,227.371454 183.68117,227.561533 183.196888,227.798282 C182.86763,228.030539 182.702319,229.137171 182.700952,231.11818 C182.700952,231.8129 182.725544,232.552704 182.774728,233.372432 C182.823912,234.19216 182.850553,234.618418 182.850553,234.686046 C182.850444,235.281148 182.968152,235.870383 183.196888,236.41977 C183.347778,236.73622 183.463902,237.068101 183.543223,237.409592 C183.543223,237.673954 183.133359,237.973155 182.313631,238.301046 C182.246003,238.335884 181.92426,238.458844 181.346352,238.674022 C180.768444,238.889201 180.397517,239.028554 180.233571,239.083886 C180.069626,239.139218 179.6946,239.274473 179.118741,239.454813 C178.663527,239.604683 178.200353,239.7292 177.731352,239.827789 C177.382968,239.893367 176.889082,239.993784 176.243546,240.12494 C175.638621,240.25108 175.0269,240.342086 174.411454,240.3975 C173.833546,240.446684 173.155221,240.495867 172.380578,240.545051 C171.605935,240.594235 170.786207,240.620876 169.921395,240.620876 C165.563175,240.620876 161.855955,239.018991 158.799736,235.815221 C155.743518,232.611451 154.214725,228.799717 154.213359,224.380017 Z" id="Path"></path>
                <path d="M199.048376,218.732092 C200.864073,218.732092 202.168124,219.16928 202.960527,220.043656 C203.752931,220.918033 204.149816,222.330014 204.151182,224.2796 L204.151182,235.723002 C204.127679,236.346459 204.320243,236.958899 204.696301,237.456726 C205.049318,237.915875 205.603364,238.174939 206.182058,238.151446 C206.643838,238.151446 207.221746,237.919872 207.915782,237.456726 C208.046939,237.456726 208.120714,237.589932 208.120714,237.854294 C208.136384,238.217611 208.050518,238.578108 207.872747,238.895349 C206.518829,240.051165 205.36233,240.629073 204.403248,240.629073 C203.645,240.629073 202.918858,240.314844 202.224821,239.686386 C201.595829,239.149328 201.104041,238.469957 200.790298,237.704694 C200.649957,237.791838 200.52411,237.900398 200.417321,238.026437 C200.144339,238.292432 199.854807,238.540896 199.550459,238.77034 C199.144533,239.080369 198.723202,239.369692 198.288078,239.637202 C197.760464,239.955759 197.194386,240.205742 196.603537,240.381105 C195.969587,240.576971 195.309954,240.677124 194.646437,240.678257 C193.127208,240.678257 191.872341,240.273175 190.881837,239.46301 C189.891332,238.652846 189.396074,237.439649 189.396074,235.823418 C189.394865,235.10432 189.582864,234.397557 189.941199,233.774099 C190.269645,233.171164 190.705847,232.633553 191.228172,232.187925 C191.85604,231.692289 192.537205,231.268194 193.259048,230.923495 C193.974009,230.557739 194.710367,230.235411 195.464116,229.958265 C196.074813,229.742404 196.876097,229.469161 197.867968,229.138537 C198.859838,228.807914 199.553192,228.559946 199.948027,228.394634 C200.245179,228.296267 200.39273,228.048299 200.39273,227.652781 L200.39273,223.937364 C200.39273,222.879915 200.062789,222.060187 199.402908,221.47818 C198.746628,220.901021 197.897392,220.59161 197.023648,220.611318 C196.091153,220.589944 195.192682,220.961828 194.54807,221.635978 C193.885456,222.312253 193.554833,223.19551 193.556199,224.285748 C193.556199,225.441565 192.87924,226.019473 191.525323,226.019473 C190.601763,226.019473 189.957594,225.705927 189.592815,225.078835 C189.592815,223.657973 190.633186,222.245992 192.713929,220.842891 C194.794671,219.43979 196.906154,218.73619 199.048376,218.732092 Z M194.390272,237.134983 C195.005014,237.632718 195.780511,237.888545 196.570748,237.854294 C197.492025,237.844546 198.389258,237.55903 199.146743,237.034566 C199.966471,236.488081 200.376335,235.934765 200.376335,235.374617 L200.376335,230.271811 C199.746573,230.539879 199.102041,230.771829 198.445876,230.966531 C197.421216,231.297154 196.619932,231.586108 196.042024,231.833393 C195.40238,232.123828 194.829066,232.542306 194.357483,233.062985 C193.829618,233.59699 193.534862,234.318406 193.537734,235.069269 C193.544586,235.968237 193.828759,236.656808 194.390272,237.134983 L194.390272,237.134983 Z" id="Shape"></path>
                <path d="M212.719388,234.58358 L212.719388,213.129252 C212.724356,212.065307 212.624827,211.003445 212.422236,209.958954 C212.256925,209.43023 211.414654,209.165867 209.895425,209.165867 L209.448673,209.165867 C209.243741,209.165867 209.151522,208.985527 209.151522,208.620748 C209.151522,208.094073 209.249889,207.827662 209.448673,207.827662 C210.440544,207.729294 211.357273,207.597455 212.198861,207.432143 C212.869581,207.310445 213.531573,207.144776 214.180553,206.936207 C214.658044,206.772262 215.06381,206.614464 215.39375,206.466913 C215.648304,206.356184 215.89664,206.231674 216.137653,206.093937 L216.342585,205.946386 L216.443002,205.946386 C216.610884,205.968653 216.75794,206.069992 216.83852,206.218946 C216.957683,206.372582 217.042266,206.550137 217.086488,206.739473 C216.721709,207.795556 216.540003,209.230079 216.541369,211.043044 L216.541369,233.642942 C216.541369,235.555641 216.673209,237.025003 216.936888,238.051029 C217.004515,238.282602 217.432823,238.505978 218.22591,238.721156 C218.773345,238.892179 219.33852,239.000126 219.910451,239.0429 C220.008818,239.0429 220.074396,239.247832 220.115383,239.637202 C220.156918,239.918473 220.13947,240.20531 220.06415,240.479473 C216.763379,240.315527 214.996865,240.232871 214.764609,240.231505 C214.566508,240.231505 212.766522,240.314161 209.364651,240.479473 C209.231446,240.346267 209.159719,240.069609 209.159719,239.659745 C209.159719,239.249881 209.225298,239.044949 209.364651,239.044949 C209.961787,239.010657 210.552382,238.902588 211.122968,238.723206 C211.897611,238.508027 212.31977,238.284651 212.385349,238.053078 C212.631687,236.913574 212.743796,235.749151 212.719388,234.58358 L212.719388,234.58358 Z" id="Path"></path>
                <path d="M225.15466,234.58358 L225.15466,213.129252 C225.160641,212.065262 225.061104,211.0033 224.857509,209.958954 C224.691514,209.43023 223.851293,209.165867 222.330697,209.165867 L221.885995,209.165867 C221.681063,209.165867 221.588844,208.985527 221.588844,208.620748 C221.588844,208.094073 221.687211,207.827662 221.885995,207.827662 C222.875133,207.729294 223.791862,207.597455 224.636182,207.432143 C225.306239,207.310491 225.967553,207.14482 226.615825,206.936207 C227.095366,206.772262 227.499082,206.614464 227.831071,206.466913 C228.085201,206.356696 228.332882,206.232171 228.572925,206.093937 L228.777857,205.946386 L228.876224,205.946386 C229.044739,205.968355 229.192545,206.069686 229.273793,206.218946 C229.392198,206.373047 229.4767,206.550431 229.52176,206.739473 C229.156981,207.795556 228.975275,209.230079 228.976641,211.043044 L228.976641,233.642942 C228.976641,235.555641 229.108481,237.025003 229.37216,238.051029 C229.437738,238.283285 229.867412,238.506661 230.661182,238.721156 C231.20853,238.892528 231.773745,239.000483 232.345723,239.0429 C232.44409,239.0429 232.509668,239.247832 232.550655,239.637202 C232.592499,239.918348 232.575754,240.205109 232.501471,240.479473 C229.197968,240.315527 227.431454,240.232871 227.20193,240.231505 C227.003829,240.231505 225.203844,240.314161 221.801973,240.479473 C221.668767,240.346267 221.597041,240.069609 221.597041,239.659745 C221.597041,239.249881 221.662619,239.044949 221.801973,239.044949 C222.399108,239.010657 222.989703,238.902588 223.560289,238.723206 C224.334932,238.508027 224.757092,238.284651 224.82267,238.053078 C225.068134,236.913464 225.179554,235.749064 225.15466,234.58358 Z" id="Path"></path>
                <path d="M244.922398,218.732092 C246.309336,218.702976 247.683737,218.999897 248.934966,219.598954 C249.998113,220.097499 250.911805,220.866329 251.584736,221.828614 C252.168561,222.679805 252.619771,223.614701 252.922942,224.601344 C253.194733,225.509623 253.332806,226.452642 253.332806,227.400714 C253.332806,228.061961 253.233756,228.466361 253.035655,228.613912 C252.830723,228.763512 252.457747,228.837287 251.896233,228.837287 L239.422024,228.837287 C239.157662,228.837287 239.026505,228.92131 239.026505,229.085255 C239.023767,231.150256 239.683922,233.161609 240.90983,234.82335 C242.164014,236.574836 243.980394,237.449895 246.358971,237.448529 C247.024829,237.448623 247.688916,237.379948 248.340663,237.243597 C248.890359,237.133986 249.429356,236.976265 249.951429,236.772253 C250.342812,236.617317 250.722865,236.435166 251.088801,236.227134 C251.40303,236.046794 251.676273,235.873285 251.908529,235.706607 L252.256913,235.458639 C252.453648,235.458639 252.552015,235.673818 252.552015,236.104175 C252.535073,236.422358 252.433172,236.730186 252.256913,236.995629 C251.5943,237.919189 250.619507,238.753262 249.332534,239.497849 C248.053288,240.23837 246.599266,240.623279 245.121182,240.612892 C242.381925,240.612892 240.029306,239.580505 238.063325,237.516156 C236.097344,235.451808 235.114354,232.933194 235.114354,229.960315 C235.114354,226.492866 236.047477,223.751559 237.913724,221.736395 C239.779972,219.72123 242.116196,218.719796 244.922398,218.732092 Z M244.426463,220.564176 C242.709133,220.564176 241.396202,221.299206 240.48767,222.769252 C239.579138,224.239297 239.124872,225.453177 239.124872,226.410893 C239.124872,226.640417 239.225289,226.757228 239.422024,226.757228 L249.082517,226.757228 C249.248512,226.757228 249.330485,226.591233 249.330485,226.261293 C249.330485,225.206576 248.885099,223.992696 247.994328,222.619651 C247.103557,221.246607 245.914269,220.561451 244.426463,220.564176 Z" id="Shape"></path>
                <path d="M269.098223,218.680859 C271.045077,218.680859 272.332732,219.159033 272.96119,220.115383 C272.96119,221.271199 272.779484,222.112786 272.416071,222.640145 C272.053342,223.168869 271.596344,223.433231 271.079915,223.433231 C270.485612,223.433231 269.939127,223.152474 269.440459,222.590961 C268.923837,222.020176 268.17853,221.711073 267.409583,221.74869 C266.384923,221.74869 265.492786,222.226865 264.733172,223.183214 C263.973557,224.139563 263.59375,225.147146 263.59375,226.205961 L263.59375,233.636794 C263.59375,235.549493 263.726273,237.018855 263.991318,238.044881 C264.056896,238.277137 264.494084,238.500513 265.302883,238.715009 C265.8589,238.885304 266.432136,238.993215 267.012015,239.036752 C267.112432,239.036752 267.17801,239.241684 267.216947,239.631054 C267.258791,239.9122 267.242046,240.198961 267.167764,240.473325 C263.86426,240.309379 262.080669,240.226723 261.81699,240.225357 C261.617523,240.225357 259.817537,240.308013 256.417032,240.473325 C256.285876,240.340119 256.2121,240.063461 256.2121,239.653597 C256.2121,239.243733 256.279728,239.038801 256.417032,239.038801 C257.014188,239.004677 257.604803,238.896604 258.175349,238.717058 C258.952041,238.501879 259.372151,238.278503 259.439779,238.04693 C259.688984,236.908405 259.805207,235.744804 259.786114,234.579481 L259.786114,225.220238 C259.786114,223.933265 259.554541,223.045227 259.091395,222.556122 C258.776426,222.169499 258.354421,221.884361 257.878197,221.736395 C257.494755,221.60533 257.094455,221.530102 256.689592,221.513019 C256.376046,221.513019 256.218248,221.482279 256.218248,221.414651 C256.218248,220.621565 256.318665,220.209651 256.5154,220.18506 C260.017004,219.656335 262.295848,219.226661 263.35193,218.896037 C263.435833,218.886717 263.518789,218.870263 263.599898,218.846854 C263.733104,218.846854 263.80483,218.988257 263.847866,219.269014 C263.881283,219.472583 263.881283,219.68024 263.847866,219.88381 L263.542517,222.35119 C264.21248,221.382674 265.044389,220.536899 266.001701,219.85102 C267.042755,219.072279 268.074929,218.682225 269.098223,218.680859 Z" id="Path"></path>
                <path d="M282.373716,233.642942 C282.373716,235.555641 282.506239,237.025003 282.771284,238.051029 C282.836862,238.283285 283.265853,238.506661 284.058257,238.721156 C284.605692,238.892179 285.170867,239.000126 285.742798,239.0429 C285.841165,239.0429 285.908793,239.247832 285.94773,239.637202 C285.989574,239.918348 285.972829,240.205109 285.898546,240.479473 C282.595043,240.315527 280.827846,240.232871 280.596956,240.231505 C280.366066,240.230139 278.56608,240.312795 275.196998,240.479473 C275.065842,240.346267 274.992066,240.069609 274.992066,239.659745 C274.992066,239.249881 275.059694,239.044949 275.196998,239.044949 C275.794134,239.010657 276.384729,238.902588 276.955315,238.723206 C277.732007,238.508027 278.152117,238.284651 278.219745,238.053078 C278.46895,236.914553 278.585173,235.750952 278.56608,234.585629 L278.56608,225.220238 C278.56608,223.933265 278.334507,223.045227 277.871361,222.556122 C277.556392,222.169499 277.134387,221.884361 276.658163,221.736395 C276.274721,221.60533 275.874421,221.530102 275.469558,221.513019 C275.156012,221.513019 274.998214,221.482279 274.998214,221.414651 C274.998214,220.621565 275.098631,220.209651 275.295366,220.18506 C278.798336,219.656335 281.07718,219.226661 282.131896,218.896037 L282.232313,218.846854 L282.379864,218.846854 C282.51307,218.846854 282.584796,218.988257 282.627832,219.269014 C282.661249,219.472583 282.661249,219.68024 282.627832,219.88381 C282.471558,221.066148 282.388743,222.257038 282.379864,223.449626 L282.373716,233.642942 Z M278.336556,212.719388 C277.481589,211.879177 277.340592,210.551466 278.000028,209.550433 C278.659465,208.5494 279.935014,208.154846 281.044483,208.60872 C282.153952,209.062594 282.787232,210.238032 282.555982,211.414232 C282.324732,212.590432 281.29359,213.438632 280.094872,213.438699 C279.434407,213.452976 278.797643,213.192481 278.336556,212.719388 Z" id="Shape"></path>
                <path d="M298.380952,218.732092 C299.767868,218.703205 301.142216,219.000115 302.39352,219.598954 C303.456668,220.097499 304.37036,220.866329 305.043291,221.828614 C305.623818,222.682031 306.072205,223.618186 306.373299,224.605442 C306.644099,225.513941 306.782148,226.456814 306.783163,227.404813 C306.783163,228.06606 306.684113,228.470459 306.486012,228.61801 C306.287911,228.765561 305.908104,228.84002 305.34659,228.841386 L292.862134,228.841386 C292.597772,228.841386 292.466616,228.925408 292.466616,229.089354 C292.464007,231.154009 293.123364,233.165119 294.347891,234.827449 C295.603441,236.578934 297.420505,237.453994 299.799082,237.452628 C300.464933,237.452605 301.129008,237.383931 301.780774,237.247696 C302.329879,237.138393 302.868221,236.980662 303.38949,236.776352 C303.781689,236.621772 304.162449,236.43961 304.528912,236.231233 C304.841774,236.050893 305.115017,235.877384 305.348639,235.710706 L305.694974,235.462738 C305.899906,235.462738 305.992126,235.66767 305.992126,236.108274 C305.975273,236.426784 305.872598,236.734808 305.694974,236.999728 C305.035094,237.923288 304.060984,238.757361 302.772645,239.501947 C301.493283,240.242191 300.039338,240.627079 298.561293,240.616979 C295.819303,240.616979 293.466001,239.584603 291.501386,237.520255 C289.536772,235.455907 288.554464,232.937293 288.554464,229.964413 C288.554464,226.496964 289.487588,223.755658 291.353835,221.740493 C293.220082,219.725329 295.562455,218.722528 298.380952,218.732092 Z M297.885017,220.564176 C296.167687,220.564176 294.854756,221.299206 293.946224,222.769252 C293.037693,224.239297 292.583427,225.453177 292.583427,226.410893 C292.583427,226.640417 292.683844,226.757228 292.880578,226.757228 L302.541071,226.757228 C302.707066,226.757228 302.789039,226.591233 302.789039,226.261293 C302.789039,225.206576 302.342971,223.992696 301.450833,222.619651 C300.558696,221.246607 299.368724,220.561451 297.880918,220.564176 L297.885017,220.564176 Z" id="Shape"></path>
                <path d="M317.499056,218.680859 C318.421466,218.700253 319.34097,218.791381 320.249243,218.953418 C321.353143,219.135125 322.120955,219.25945 322.552679,219.326395 C322.898293,220.990297 323.097158,222.68133 323.146981,224.380017 C323.146981,224.543963 322.931803,224.625935 322.501446,224.625935 C322.038299,224.625935 321.792381,224.511173 321.759592,224.2796 C321.556273,223.285111 321.065286,222.372259 320.347611,221.654422 C319.571601,220.834694 318.687662,220.42483 317.695791,220.42483 C315.31858,220.42483 314.129974,221.39894 314.129974,223.34716 C314.123951,223.793438 314.193233,224.237537 314.334906,224.660774 C314.495383,225.081882 314.758902,225.456024 315.101352,225.748963 C315.480476,226.095298 315.77148,226.343265 315.968214,226.492866 C316.392361,226.779321 316.830798,227.044024 317.281828,227.285952 C317.958104,227.665077 318.380264,227.900748 318.544209,228.003214 C318.677415,228.070842 319.064736,228.292168 319.710272,228.671293 C320.355808,229.050417 320.806658,229.325026 321.07102,229.49102 C321.335383,229.657015 321.722704,229.937772 322.235034,230.333291 C322.651822,230.638016 323.026655,230.996313 323.349864,231.398937 C323.614141,231.770646 323.838743,232.169023 324.019991,232.587543 C324.229409,233.047072 324.339065,233.545765 324.341735,234.050757 C324.341735,235.998977 323.58212,237.625454 322.062891,238.930187 C320.581375,240.219341 318.675758,240.91561 316.712117,240.885238 C316.074053,240.88888 315.436519,240.847793 314.804201,240.762279 C314.226293,240.680306 313.543186,240.543685 312.754881,240.352415 C311.961794,240.147483 311.351097,240.022474 310.922789,239.954847 C310.657447,239.148151 310.466743,238.318793 310.353078,237.477219 C310.194577,236.597409 310.103459,235.706783 310.080519,234.813104 C310.246212,234.659381 310.452428,234.556274 310.674821,234.515952 C311.168707,234.515952 311.43307,234.61432 311.467908,234.813104 C311.664643,235.802242 312.283537,236.768155 313.324592,237.710842 C314.365646,238.653529 315.496871,239.124189 316.718265,239.122823 C317.775714,239.122823 318.642577,238.833869 319.318852,238.255961 C319.995128,237.678053 320.336681,236.84398 320.343512,235.753741 C320.347813,235.216988 320.238149,234.685434 320.021769,234.194209 C319.783464,233.687066 319.426346,233.244887 318.980714,232.905187 C318.555183,232.563395 318.1082,232.249206 317.642509,231.964549 C317.232645,231.715899 316.646539,231.394155 315.884192,230.99932 C315.121845,230.604484 314.560332,230.290255 314.199651,230.056633 C311.62434,228.571559 310.336684,226.805045 310.336684,224.757092 C310.336684,222.972817 311.054629,221.519167 312.490519,220.396139 C313.914686,219.26832 315.682492,218.662897 317.499056,218.680859 L317.499056,218.680859 Z" id="Path"></path>
                <path d="M207.483376,107.675357 C208.3154,107.675357 210.467185,107.588603 213.938733,107.415094 C214.02492,107.692627 214.051459,107.985247 214.016607,108.273759 C213.998163,108.708214 213.938733,108.925442 213.834218,108.925442 C213.502737,108.934448 213.172471,108.969393 212.846446,109.029957 C212.367666,109.121935 211.909016,109.298179 211.491845,109.550485 C211.006156,109.829192 210.762287,110.191922 210.762287,110.642772 C210.762287,111.651037 212.948228,117.499796 217.320111,128.189048 C218.258699,130.549864 219.005334,132.38947 219.560017,133.707866 C219.598012,133.787246 219.668008,133.846694 219.752493,133.871335 C219.836978,133.895977 219.927958,133.88348 220.00267,133.836973 C220.179484,133.76474 220.319808,133.624416 220.392041,133.447602 L228.201998,114.593861 C228.861879,112.894974 229.19182,111.677679 229.19182,110.95017 C229.19182,110.465164 228.913795,110.048469 228.357747,109.700085 C227.875436,109.382671 227.336025,109.162035 226.769524,109.050451 C226.363897,108.973445 225.952675,108.929582 225.539932,108.919294 C225.402628,108.919294 225.335,108.702066 225.335,108.267611 C225.335,107.833155 225.404677,107.548299 225.539932,107.408946 C228.768294,107.582455 230.62566,107.669209 231.112032,107.669209 C231.144821,107.669209 232.897673,107.582455 236.370587,107.408946 C236.444717,107.662386 236.479279,107.925751 236.473053,108.189736 C236.473053,108.677474 236.403376,108.919294 236.268121,108.919294 C234.706539,108.919294 233.664802,109.404983 233.142908,110.376361 C232.34504,111.835476 231.495255,113.623166 230.593554,115.73943 L220.180961,140.62432 C219.727378,141.769206 219.119413,142.342333 218.357066,142.343699 C218.135998,142.356589 217.929845,142.23192 217.838588,142.030153 L207.165731,115.114388 C206.29682,112.823248 205.515346,111.157151 204.82131,110.116097 C204.57949,109.734923 204.075357,109.439821 203.31301,109.23284 C202.720682,109.051907 202.107862,108.946557 201.489116,108.919294 C201.349762,108.919294 201.284184,108.693869 201.284184,108.243019 C201.284184,107.833155 201.351811,107.548299 201.489116,107.408946 C202.045164,107.444467 202.705045,107.479306 203.468759,107.513461 C204.231105,107.548299 204.917628,107.583138 205.518078,107.617976 C206.118529,107.652815 206.788656,107.675357 207.483376,107.675357 Z" id="Path"></path>
                <path d="M249.498529,119.1821 C251.411227,119.1821 252.782222,119.642018 253.611514,120.56148 C254.440805,121.480941 254.856817,122.964649 254.859549,125.012602 L254.859549,137.04006 C254.835785,137.695236 255.03842,138.338603 255.433359,138.861905 C255.805097,139.343537 256.387005,139.615399 256.99494,139.591463 C257.481312,139.591463 258.088594,139.348277 258.816786,138.861905 C258.95409,138.861905 259.021718,139.001259 259.021718,139.271769 C259.038734,139.653683 258.948583,140.032743 258.761454,140.366105 C257.336494,141.582035 256.121247,142.189317 255.115714,142.187951 C254.317846,142.187951 253.554133,141.85801 252.824575,141.198129 C252.164385,140.632991 251.647499,139.919464 251.316276,139.11602 C251.168375,139.206824 251.036184,139.32102 250.924855,139.454158 C250.637818,139.732795 250.333947,139.993549 250.014957,140.234949 C249.632418,140.530051 249.189765,140.834033 248.686998,141.146896 C248.132162,141.480941 247.537215,141.743296 246.916386,141.927687 C246.252542,142.132728 245.561853,142.237713 244.867066,142.239184 C243.268597,142.239184 241.949518,141.814291 240.90983,140.964507 C239.870142,140.114722 239.349615,138.838679 239.348243,137.136378 C239.347075,136.378825 239.544193,135.634156 239.920009,134.976395 C240.266634,134.343387 240.725659,133.778808 241.274609,133.310298 C241.934422,132.790109 242.649913,132.344732 243.407951,131.982338 C244.15889,131.593765 244.932934,131.251571 245.725731,130.957679 C246.367851,130.732253 247.209439,130.446032 248.250493,130.099014 C249.291548,129.751995 250.020422,129.491732 250.437117,129.318223 C250.748614,129.213707 250.906412,128.953444 250.906412,128.537432 L250.906412,124.631429 C250.906412,123.520697 250.55871,122.662032 249.863308,122.055434 C249.173877,121.44986 248.282615,121.124502 247.365187,121.143486 C246.386131,121.117731 245.441452,121.505272 244.762551,122.211182 C244.068515,122.922979 243.721497,123.851321 243.721497,124.996207 C243.721497,126.210771 243.0097,126.818053 241.586105,126.818053 C240.614728,126.818053 239.937769,126.488795 239.55523,125.830281 C239.55523,124.338376 240.6482,122.853985 242.834141,121.377109 C245.020082,119.900232 247.241545,119.168625 249.498529,119.1821 Z M244.602704,138.534014 C245.192908,139.035414 245.956621,139.286797 246.893844,139.288163 C247.861725,139.278687 248.804599,138.979623 249.600995,138.429498 C250.469906,137.855689 250.904362,137.274365 250.904362,136.685527 L250.904362,131.322457 C250.241548,131.603351 249.563529,131.846918 248.873486,132.052015 C247.798277,132.399033 246.956689,132.702333 246.348724,132.961913 C245.674875,133.269483 245.072015,133.713255 244.578112,134.265281 C244.023767,134.825809 243.714882,135.583648 243.719397,136.371981 C243.719397,137.303739 244.013866,138.024416 244.602704,138.534014 Z" id="Shape"></path>
                <path d="M274.592449,119.129005 C276.641769,119.129005 277.995003,119.632455 278.652151,120.639354 C278.652151,121.855283 278.461565,122.743322 278.080391,123.303469 C277.697168,123.858835 277.229923,124.135493 276.674558,124.135493 C276.059762,124.135493 275.477755,123.84244 274.955179,123.250187 C274.432602,122.657934 273.725587,122.36693 272.821837,122.36693 C271.746627,122.36693 270.809405,122.869697 270.01017,123.87523 C269.210935,124.880762 268.812001,125.939578 268.813367,127.051675 L268.813367,134.845238 C268.813367,136.85767 268.949989,138.402174 269.223231,139.47875 C269.292908,139.72057 269.751956,139.956241 270.602423,140.181667 C271.187167,140.360467 271.789935,140.473873 272.399677,140.519804 C272.502143,140.519804 272.57182,140.724736 272.604609,141.1346 C272.649319,141.42937 272.631867,141.730233 272.553376,142.017857 C269.081828,141.845714 267.207384,141.75896 266.930043,141.757594 C266.721012,141.757594 264.82949,141.844348 261.255476,142.017857 C261.116122,141.880553 261.050544,141.593648 261.050544,141.159192 C261.050544,140.724736 261.120221,140.509558 261.255476,140.509558 C261.881812,140.472903 262.50126,140.359338 263.099864,140.17142 C263.919592,139.945995 264.358146,139.710323 264.427823,139.468503 C264.690329,138.271506 264.812744,137.048042 264.792602,135.822764 L264.792602,125.986029 C264.792602,124.632112 264.549416,123.694889 264.063044,123.174362 C263.731181,122.768803 263.287081,122.470123 262.786318,122.315697 C262.383827,122.177751 261.963418,122.099053 261.538282,122.082075 C261.208342,122.082075 261.042347,122.047236 261.042347,121.97756 C261.042347,121.143486 261.146862,120.71108 261.355893,120.676241 C265.033739,120.120193 267.42871,119.668659 268.540808,119.321641 C268.628861,119.311996 268.715932,119.294856 268.801071,119.270408 C268.938376,119.270408 269.026497,119.417959 269.061335,119.713061 C269.095257,119.928278 269.095257,120.147479 269.061335,120.362696 L268.747789,122.965332 C269.453905,121.954079 270.327106,121.070483 271.329932,120.352449 C272.422902,119.539552 273.510408,119.131738 274.592449,119.129005 Z" id="Path"></path>
                <path d="M299.061327,122.461199 C299.061327,121.351834 297.811925,120.796468 295.313121,120.795102 C295.173767,120.795102 295.108189,120.579923 295.108189,120.145468 C295.108189,119.711012 295.177866,119.424107 295.313121,119.286803 C295.694294,119.320958 296.405408,119.372874 297.446463,119.442551 C298.487517,119.512228 299.424739,119.547066 300.258129,119.547066 L305.465451,119.286803 C305.54063,119.540058 305.575892,119.803481 305.569966,120.067594 C305.569966,120.553282 305.447007,120.795102 305.205187,120.795102 C304.545406,120.828789 303.895173,120.967136 303.278827,121.204966 C302.479592,121.478209 301.941304,121.929742 301.663963,122.559566 L293.38676,141.249362 C293.261038,141.566192 293.043345,141.838129 292.761718,142.030153 C292.413333,142.303396 292.118231,142.440017 291.876412,142.440017 C291.632543,142.440017 291.466548,142.37034 291.407117,142.235085 C290.816913,140.952211 289.524476,137.967718 287.529804,133.281607 C285.535133,128.595496 283.791162,124.77693 282.297891,121.82591 C281.949507,121.13324 280.924847,120.786222 279.223912,120.784855 C279.08729,120.784855 279.01898,120.55943 279.01898,120.10858 C279.01898,119.698716 279.088656,119.413861 279.223912,119.276556 C282.797925,119.450065 284.602693,119.53682 284.638214,119.53682 L289.843486,119.276556 C289.913163,119.413861 289.921361,119.700765 289.870128,120.135221 C289.818895,120.569677 289.738971,120.784855 289.636505,120.784855 C287.93557,120.784855 287.085102,121.079957 287.085102,121.670162 C287.086166,121.741507 287.103699,121.811641 287.136335,121.875094 L293.384711,135.98466 L298.643265,124.008435 C298.877098,123.522979 299.01885,122.998359 299.061327,122.461199 L299.061327,122.461199 Z" id="Path"></path>
                <path d="M316.970332,119.1821 C318.88303,119.1821 320.254025,119.642018 321.083316,120.56148 C321.912608,121.480941 322.329303,122.964649 322.333401,125.012602 L322.333401,137.04006 C322.310386,137.69481 322.512153,138.337717 322.905162,138.861905 C323.2769,139.343537 323.858807,139.615399 324.466743,139.591463 C324.953115,139.591463 325.56108,139.348277 326.290638,138.861905 C326.427942,138.861905 326.49557,139.001259 326.49557,139.271769 C326.512586,139.653683 326.422435,140.032743 326.235306,140.366105 C324.813078,141.582035 323.598515,142.189317 322.591616,142.187951 C321.792381,142.187951 321.028668,141.85801 320.300476,141.198129 C319.639713,140.633061 319.122144,139.91956 318.790128,139.11602 C318.643104,139.207205 318.511646,139.321365 318.400757,139.454158 C318.112494,139.73224 317.807976,139.992962 317.48881,140.234949 C317.061882,140.561219 316.618658,140.865594 316.16085,141.146896 C315.606935,141.481315 315.012615,141.743697 314.392287,141.927687 C313.728396,142.13252 313.037738,142.2375 312.342968,142.239184 C310.747231,142.239184 309.428152,141.814291 308.385731,140.964507 C307.343311,140.114722 306.822783,138.838679 306.824142,137.136378 C306.822739,136.378528 307.020624,135.633629 307.397959,134.976395 C307.743974,134.343556 308.202295,133.778988 308.75051,133.310298 C309.410763,132.789689 310.12698,132.344286 310.885901,131.982338 C311.636175,131.593842 312.409533,131.251648 313.201633,130.957679 C313.843753,130.732253 314.68534,130.446032 315.726395,130.099014 C316.767449,129.751995 317.496324,129.491732 317.913019,129.318223 C318.225882,129.213024 318.382313,128.952761 318.382313,128.537432 L318.382313,124.631429 C318.382313,123.520697 318.035295,122.662032 317.341259,122.055434 C316.651199,121.449552 315.759185,121.124186 314.841088,121.143486 C313.862032,121.117731 312.917353,121.505272 312.238452,122.211182 C311.544416,122.922979 311.197398,123.851321 311.197398,124.996207 C311.197398,126.210771 310.486284,126.818053 309.064056,126.818053 C308.091312,126.818053 307.414354,126.488795 307.03318,125.830281 C307.03318,124.338376 308.126151,122.853985 310.312092,121.377109 C312.498033,119.900232 314.717446,119.168625 316.970332,119.1821 Z M312.076556,138.534014 C312.66676,139.035414 313.430473,139.286797 314.367696,139.288163 C315.335477,139.278062 316.278172,138.979054 317.074847,138.429498 C317.942392,137.855689 318.376165,137.274365 318.376165,136.685527 L318.376165,131.322457 C317.713495,131.603718 317.035454,131.847293 316.345289,132.052015 C315.270079,132.399033 314.428492,132.702333 313.820527,132.961913 C313.147307,133.270552 312.544651,133.714173 312.049915,134.265281 C311.496525,134.826439 311.187808,135.583865 311.191222,136.371981 C311.191222,137.303739 311.486352,138.024416 312.076556,138.534014 Z" id="Shape"></path>
                <path d="M342.064252,119.129005 C344.113571,119.129005 345.467489,119.632455 346.126003,120.639354 C346.126003,121.855283 345.934734,122.743322 345.552194,123.303469 C345.169654,123.863617 344.701043,124.140958 344.146361,124.135493 C343.531565,124.135493 342.949558,123.84244 342.429031,123.250187 C341.908503,122.657934 341.199439,122.36693 340.295689,122.36693 C339.217747,122.36693 338.280524,122.869697 337.484022,123.87523 C336.68752,124.880762 336.287902,125.939578 336.28517,127.051675 L336.28517,134.845238 C336.28517,136.85767 336.421791,138.402174 336.695034,139.47875 C336.762662,139.72057 337.223759,139.956241 338.074226,140.181667 C338.658327,140.360237 339.26039,140.473639 339.86943,140.519804 C339.973946,140.519804 340.043622,140.724736 340.074362,141.1346 C340.117998,141.429419 340.100559,141.730061 340.023129,142.017857 C336.551582,141.845714 334.677137,141.75896 334.399796,141.757594 C334.190765,141.757594 332.299243,141.844348 328.72523,142.017857 C328.585876,141.880553 328.520298,141.593648 328.520298,141.159192 C328.520298,140.724736 328.589974,140.509558 328.72523,140.509558 C329.351545,140.472739 329.970973,140.359177 330.569617,140.17142 C331.389345,139.945995 331.82585,139.710323 331.895527,139.468503 C332.159049,138.271668 332.281476,137.048084 332.260306,135.822764 L332.260306,125.986029 C332.260306,124.632112 332.01712,123.694889 331.530748,123.174362 C331.199435,122.769135 330.75609,122.470484 330.256071,122.315697 C329.852837,122.177892 329.431774,122.099202 329.005986,122.082075 C328.676046,122.082075 328.5121,122.047236 328.5121,121.97756 C328.5121,121.143486 328.616616,120.71108 328.823597,120.676241 C332.504175,120.120193 334.899147,119.668659 336.008512,119.321641 C336.096595,119.312188 336.183681,119.295045 336.268776,119.270408 C336.408129,119.270408 336.494201,119.417959 336.529039,119.713061 C336.565077,119.928107 336.565077,120.14765 336.529039,120.362696 L336.217543,122.965332 C336.920704,121.949012 337.791824,121.059873 338.793537,120.336054 C339.898804,119.534087 340.989042,119.131738 342.064252,119.129005 Z" id="Path"></path>
                <path d="M358.776454,119.1821 C360.689152,119.1821 362.060147,119.642018 362.889439,120.56148 C363.71873,121.480941 364.135425,122.964649 364.139524,125.012602 L364.139524,137.04006 C364.116509,137.69481 364.318276,138.337717 364.711284,138.861905 C365.084107,139.343316 365.666476,139.615037 366.274915,139.591463 C366.761287,139.591463 367.368569,139.348277 368.09676,138.861905 C368.234065,138.861905 368.301692,139.001259 368.301692,139.271769 C368.318708,139.653683 368.228557,140.032743 368.041429,140.366105 C366.619201,141.582035 365.404637,142.189317 364.397738,142.187951 C363.598503,142.187951 362.83479,141.85801 362.106599,141.198129 C361.445836,140.633061 360.928266,139.91956 360.59625,139.11602 C360.449227,139.207205 360.317769,139.321365 360.206879,139.454158 C359.918617,139.73224 359.614098,139.992962 359.294932,140.234949 C358.868005,140.561219 358.424781,140.865594 357.966973,141.146896 C357.413057,141.481315 356.818738,141.743697 356.19841,141.927687 C355.534519,142.13252 354.84386,142.2375 354.14909,142.239184 C352.553353,142.239184 351.234274,141.814291 350.191854,140.964507 C349.149433,140.114722 348.628906,138.838679 348.630265,137.136378 C348.628861,136.378528 348.826747,135.633629 349.204082,134.976395 C349.550096,134.343556 350.008417,133.778988 350.556633,133.310298 C351.216885,132.789689 351.933103,132.344286 352.692024,131.982338 C353.442298,131.593842 354.215655,131.251648 355.007755,130.957679 C355.651241,130.732253 356.491463,130.445349 357.534566,130.099014 C358.57767,129.752679 359.303129,129.484218 359.72119,129.318223 C360.032687,129.213024 360.188435,128.952761 360.188435,128.537432 L360.188435,124.631429 C360.188435,123.520697 359.841417,122.662032 359.147381,122.055434 C358.45795,121.44986 357.566688,121.124502 356.64926,121.143486 C355.669497,121.117149 354.723961,121.504738 354.044575,122.211182 C353.350539,122.922979 353.00352,123.851321 353.00352,124.996207 C353.00352,126.210771 352.292406,126.818053 350.870179,126.818053 C349.897435,126.818053 349.220476,126.488795 348.839303,125.830281 C348.839303,124.338376 349.932273,122.853985 352.118214,121.377109 C354.304155,119.900232 356.523569,119.168625 358.776454,119.1821 Z M353.882679,138.534014 C354.472883,139.035414 355.236596,139.286797 356.173818,139.288163 C357.141599,139.278062 358.084295,138.979054 358.880969,138.429498 C359.748515,137.855689 360.182287,137.274365 360.182287,136.685527 L360.182287,131.322457 C359.519617,131.603718 358.841577,131.847293 358.151412,132.052015 C357.076202,132.399033 356.234615,132.702333 355.62665,132.961913 C354.953429,133.270552 354.350774,133.714173 353.856037,134.265281 C353.302647,134.826439 352.99393,135.583865 352.997344,136.371981 C352.997344,137.303739 353.292474,138.024416 353.882679,138.534014 Z" id="Shape"></path>
                <path d="M194.146403,155.246216 C195.410169,155.251471 196.66698,155.433578 197.880264,155.787236 C199.187687,156.167749 200.441615,156.712426 201.612075,157.408248 C202.868389,158.161645 203.911627,159.223223 204.643019,160.492474 C205.456141,161.905675 205.867178,163.514387 205.831624,165.14443 C205.831624,166.659561 205.263963,168.246417 204.128639,169.905 C202.968151,171.585512 201.368108,172.914746 199.503325,173.747474 C199.142645,173.890927 199.034031,174.071267 199.177483,174.288495 C200.980884,178.075638 203.054796,181.249351 205.399218,183.809634 C208.862568,187.596777 211.675601,189.489666 213.838316,189.488299 C213.95094,189.724875 214.006395,189.984605 214.000213,190.246548 C214.011318,190.528709 213.955857,190.809522 213.838316,191.066276 C213.361129,191.183886 212.870563,191.238317 212.379201,191.228172 C207.324212,191.228172 202.942083,188.632367 199.232815,183.440757 C198.654906,182.648353 197.996392,181.701567 197.25727,180.6004 C196.518149,179.499232 195.977129,178.706145 195.634209,178.221139 C195.29129,177.733401 194.895088,177.201261 194.445604,176.624719 C194.092196,176.153707 193.693398,175.71853 193.254949,175.325451 C192.918458,175.042658 192.545576,174.806247 192.146267,174.622534 C191.748699,174.479082 191.080621,174.405306 190.144082,174.405306 C189.927161,174.402098 189.71024,174.411678 189.494447,174.433997 C189.327463,174.464363 189.175333,174.54944 189.062041,174.675816 C188.906005,174.85479 188.827816,175.088618 188.844813,175.325451 L188.844813,183.278861 C188.844813,185.694325 188.989632,187.265471 189.279269,187.992296 C189.456876,188.460907 190.096947,188.840031 191.199481,189.129668 C192.302015,189.419306 193.086222,189.563441 193.5521,189.562075 C193.695553,189.562075 193.769328,189.814141 193.769328,190.318274 C193.777074,190.59556 193.740406,190.872301 193.660714,191.138002 C190.053912,190.960394 187.70949,190.870224 186.627449,190.867491 L180.028639,191.138002 C179.920026,191.031437 179.864694,190.705595 179.864694,190.164575 C179.864694,189.69733 179.920026,189.461658 180.028639,189.461658 C180.741272,189.431069 181.448408,189.32249 182.137389,189.137866 C183.03909,188.920638 183.580111,188.647395 183.760451,188.318138 C184.011834,187.886414 184.138209,186.190944 184.139575,183.231726 L184.139575,162.783614 C184.139575,160.65642 184.0132,159.105768 183.760451,158.131658 C183.651154,157.843387 183.119014,157.570145 182.164031,157.31193 C181.469373,157.103052 180.752745,156.975819 180.028639,156.932806 C179.883138,156.932806 179.811412,156.715578 179.811412,156.283172 C179.811412,155.815927 179.883138,155.508529 180.028639,155.363027 L186.518835,155.471641 C187.600876,155.471641 188.881701,155.435437 190.36131,155.363027 C191.840918,155.290618 193.102616,155.251681 194.146403,155.246216 Z M193.28159,157.625476 C191.658529,157.625476 190.396148,157.751851 189.494447,158.0046 C189.350995,158.041488 189.232134,158.176743 189.144014,158.414464 C189.055893,158.652185 188.980068,159.189107 188.926786,160.037526 C188.873503,160.885944 188.844813,162.19341 188.844813,163.959923 L188.844813,170.503401 C188.844813,171.548554 190.415958,172.071131 193.558248,172.071131 L194.910799,172.071131 C196.17318,172.071131 197.480646,171.440624 198.833197,170.179609 C200.185748,168.918594 200.862024,167.240884 200.862024,165.14648 C200.857925,160.13521 198.331114,157.628209 193.28159,157.625476 L193.28159,157.625476 Z" id="Shape"></path>
                <path d="M227.20193,167.308512 C230.448053,167.308512 233.224881,168.480723 235.532415,170.825145 C237.789427,173.047997 239.039872,176.096745 238.993716,179.264243 C238.993716,182.584141 237.86659,185.424498 235.612338,187.785315 C233.358087,190.146131 230.590139,191.327222 227.308495,191.328588 C224.029583,191.328588 221.234994,190.147497 218.924728,187.785315 C216.6602,185.533682 215.409798,182.457247 215.461378,179.264243 C215.461378,175.911556 216.579623,173.080762 218.816114,170.771862 C221.052605,168.462962 223.847877,167.308512 227.20193,167.308512 Z M226.605578,169.419311 C224.69288,169.419311 223.133348,170.293688 221.926981,172.04244 C220.720615,173.791193 220.116066,175.927951 220.113333,178.452713 C220.113333,181.41193 220.879779,183.945573 222.41267,186.053639 C223.945561,188.161706 225.740082,189.217106 227.796233,189.219838 C229.708931,189.219838 231.280077,188.318138 232.509668,186.514736 C233.73926,184.711335 234.354056,182.547253 234.354056,180.022491 C234.354056,177.100162 233.57873,174.602724 232.028078,172.530179 C230.477426,170.457633 228.669926,169.420677 226.605578,169.419311 Z" id="Shape"></path>
                <path d="M248.352959,188.406259 C248.352959,188.660374 248.570187,188.785383 249.002594,188.785383 L256.089141,188.785383 C257.602905,188.785383 258.71227,188.406942 259.417236,187.65006 C260.120153,186.891811 260.669371,185.830264 261.066939,184.457219 C261.138665,184.061701 261.271871,183.862917 261.499345,183.862917 C262.293115,183.862917 262.815692,184.079461 263.067075,184.512551 L261.931752,190.949464 L243.692806,190.949464 C242.971446,190.517741 242.610765,190.103095 242.610765,189.705527 C242.602159,189.629088 242.621048,189.552081 242.664048,189.488299 L256.568682,170.17756 L248.506658,170.122228 C247.871814,170.09707 247.245801,170.277471 246.721701,170.636607 C246.320707,170.901261 245.994638,171.264737 245.774915,171.692007 C245.581775,172.140131 245.419501,172.600936 245.289226,173.071199 C245.12733,173.630663 245.026913,173.962653 244.990026,174.071267 C244.883461,174.288495 244.451054,174.39506 243.692806,174.39506 C243.295238,174.39506 243.098503,174.341777 243.098503,174.233163 C243.098503,174.096542 243.224195,173.239926 243.475578,171.663316 C243.726961,170.086706 243.889541,168.76148 243.963316,167.687636 C246.09051,167.904864 247.803741,168.012795 249.10301,168.011429 L255.70182,168.011429 C257.908821,168.000789 260.11315,167.856389 262.302679,167.579022 C262.410609,167.760728 262.464575,168.193818 262.464575,168.878291 L248.734133,187.65006 C248.480017,188.01074 248.352959,188.264855 248.352959,188.406259 Z" id="Path"></path>
                <path d="M276.104847,167.363844 C278.088588,167.363844 279.513549,167.842018 280.379728,168.798367 C281.245907,169.754717 281.678313,171.296488 281.676947,173.423682 L281.676947,185.924532 C281.652098,186.605516 281.862708,187.274256 282.273299,187.818104 C282.65857,188.318937 283.262942,188.601639 283.894311,188.576352 C284.39981,188.576352 285.031001,188.323603 285.787883,187.818104 C285.931335,187.818104 286.005111,187.963605 286.005111,188.25051 C286.023158,188.647479 285.929434,189.041545 285.7346,189.387883 C284.254991,190.650264 282.992611,191.281454 281.947457,191.281454 C281.118166,191.281454 280.325079,190.939901 279.568197,190.256794 C278.880461,189.670372 278.342343,188.928529 277.998418,188.092713 C277.843734,188.187405 277.705335,188.306428 277.588554,188.445196 C277.290243,188.737785 276.974038,189.011555 276.641769,189.264923 C276.244201,189.570955 275.78447,189.88655 275.262577,190.211709 C274.685378,190.562726 274.06552,190.838219 273.418189,191.031437 C272.726535,191.245313 272.006764,191.354453 271.282798,191.35523 C269.622849,191.35523 268.252537,190.91326 267.171862,190.02932 C266.091188,189.14538 265.550167,187.820153 265.548769,186.053639 C265.545843,185.263114 265.750796,184.485707 266.143104,183.799388 C266.502148,183.141825 266.978625,182.555606 267.548937,182.069762 C268.234642,181.528202 268.979134,181.065558 269.76835,180.69057 C270.548055,180.290058 271.351521,179.9376 272.174252,179.63517 C272.84233,179.401548 273.717389,179.103713 274.79943,178.741667 C275.881471,178.37962 276.638353,178.106378 277.070077,177.921939 C277.395918,177.813325 277.557815,177.544864 277.557815,177.102211 L277.557815,173.044558 C277.557815,171.890108 277.197134,170.997287 276.475774,170.366097 C275.759194,169.7368 274.832747,169.398979 273.879286,169.419311 C272.862033,169.393306 271.880588,169.79555 271.174184,170.527993 C270.452823,171.268481 270.092143,172.233027 270.092143,173.421633 C270.092143,174.686746 269.353022,175.317937 267.874779,175.315204 C266.863781,175.315204 266.160181,174.973651 265.76398,174.290544 C265.76398,172.739892 266.899986,171.198121 269.171998,169.66523 C271.444011,168.132338 273.75496,167.36521 276.104847,167.363844 Z M271.020485,187.461522 C271.632548,187.983416 272.425635,188.244362 273.399745,188.244362 C274.405562,188.234448 275.385438,187.923999 276.213461,187.352908 C277.115162,186.756556 277.566012,186.154056 277.566012,185.53926 L277.566012,179.969209 C276.876793,180.259744 276.172131,180.512191 275.455213,180.725408 C274.33765,181.086088 273.463274,181.401684 272.832083,181.672194 C272.130737,181.991275 271.502831,182.451739 270.987696,183.024745 C270.411249,183.60768 270.089865,184.395659 270.094149,185.215468 C270.098291,186.189578 270.407055,186.938262 271.020485,187.461522 Z" id="Shape"></path>
            </g>
        </g>
    </g>
</svg>