<?xml version="1.0" encoding="UTF-8"?>
<svg width="375px" height="245px" viewBox="0 0 375 245" version="1.1" xmlns="http://www.w3.org/2000/svg" xmlns:xlink="http://www.w3.org/1999/xlink">
    <!-- Generator: Sketch 59.1 (86144) - https://sketch.com -->
    <title>Logo / VRA White</title>
    <desc>Created with Sketch.</desc>
    <g id="Website" stroke="none" stroke-width="1" fill="none" fill-rule="evenodd">
        <g id="Home-page" transform="translate(-561.000000, -287.000000)" fill="#FFFFFF">
            <g id="Logo-/-VRA-White" transform="translate(561.000000, 287.000000)">
                <g id="VRG-White" transform="translate(-0.000000, 0.000000)">
                    <polygon id="Path" fill-rule="nonzero" points="179.927463 0.0708333333 205.865504 61.1416667 232.286656 0.075"></polygon>
                    <path d="M88.5008641,27.7083333 C88.2058053,26.0303435 88.0663876,24.3286624 88.0843894,22.625 C88.0843894,13.6125 100.307921,10.4166667 109.170501,9.28125 C111.862316,9.04791667 114.857463,8.83958333 118.155942,8.65625 L118.155942,0.0708333333 L0.0853773041,0.0708333333 L0.0853773041,8.6625 C8.22051555,9.35 14.2073387,11.5569444 18.0458468,15.2833333 C21.8843548,19.0097222 25.6388738,25.1145833 29.3094038,33.5979167 L119.892641,244.604167 L127.243419,244.604167 L153.879055,182.835417 L90.1584332,32.7958333 C89.4149114,31.1683539 88.8588147,29.4615524 88.5008641,27.7083333 Z" id="Path" fill-rule="nonzero"></path>
                    <path d="M156.675683,228.104167 C156.675683,223.334722 158.272169,219.246528 161.465141,215.839583 C164.658113,212.432639 168.567422,210.728472 173.193067,210.727083 C175.575302,210.727083 179.552635,211.482639 185.125066,212.99375 C185.263891,216.821528 185.333304,218.904861 185.333304,219.24375 C185.333304,219.747917 184.981382,219.997917 184.27754,219.997917 C183.940196,219.997917 183.723629,219.914583 183.621593,219.747917 C182.715066,215.147917 179.292339,212.847917 173.35341,212.847917 C169.996624,212.847917 167.194444,214.275 164.946869,217.129167 C162.699294,219.983333 161.574813,223.424306 161.573425,227.452083 C161.573425,231.179861 162.806884,234.613194 165.273802,237.752083 C167.74072,240.890972 170.836515,242.460417 174.561187,242.460417 C177.513992,242.460417 179.695625,242.090972 181.106086,241.352083 C181.339312,241.252083 181.458007,241 181.458007,240.597917 L181.40803,236.466667 L181.40803,236.114583 C181.40803,233.934028 181.27337,232.490278 181.00405,231.783333 C180.865225,231.448611 180.320337,231.179861 179.369387,230.977083 C178.633926,230.804699 177.883589,230.703539 177.128753,230.675 C176.993399,230.675 176.920516,230.466667 176.920516,230.05 C176.920516,229.633333 176.987151,229.354167 177.128753,229.216667 C181.423995,229.384722 183.622287,229.46875 183.723629,229.46875 C183.990173,229.46875 185.801838,229.384722 189.158623,229.216667 C189.230898,229.444943 189.265365,229.683509 189.26066,229.922917 C189.26066,230.425 189.191941,230.677083 189.052422,230.677083 C188.580458,230.737311 188.116248,230.847655 187.667644,231.00625 C187.138919,231.149421 186.625028,231.342655 186.132935,231.583333 C185.798367,231.819444 185.630389,232.944444 185.629001,234.958333 C185.629001,235.664583 185.653989,236.416667 185.706048,237.25 C185.758108,238.083333 185.781014,238.516667 185.781014,238.585417 C185.780904,239.190396 185.90051,239.789411 186.132935,240.347917 C186.286258,240.669618 186.404255,241.007008 186.484856,241.354167 C186.484856,241.622917 186.068381,241.927083 185.235432,242.260417 C185.166714,242.295833 184.839781,242.420833 184.254634,242.639583 C183.669487,242.858333 183.288413,243 183.121823,243.05625 C182.955233,243.1125 182.574159,243.25 181.989012,243.433333 C181.526455,243.585691 181.055811,243.712274 180.579245,243.8125 C180.227324,243.879167 179.72339,243.98125 179.067442,244.114583 C178.452761,244.242817 177.831173,244.335333 177.205801,244.391667 C176.618571,244.441667 175.930694,244.491667 175.142169,244.541667 C174.353643,244.591667 173.520694,244.617361 172.643321,244.61875 C168.214807,244.61875 164.447794,242.990278 161.342281,239.733333 C158.236768,236.476389 156.681236,232.6 156.675683,228.104167 Z" id="Path" fill-rule="nonzero"></path>
                    <path d="M202.233845,222.3625 C204.078828,222.3625 205.404605,222.806944 206.211178,223.695833 C207.017751,224.584722 207.420343,226.020139 207.418954,228.002083 L207.418954,239.635417 C207.395073,240.269222 207.590742,240.891827 207.972866,241.397917 C208.331576,241.864686 208.894559,242.12805 209.482586,242.104167 C209.951815,242.104167 210.539044,241.86875 211.244274,241.397917 C211.377546,241.397917 211.452512,241.533333 211.452512,241.802083 C211.468434,242.17143 211.381183,242.53791 211.200544,242.860417 C209.823401,244.035417 208.648249,244.622917 207.675086,244.622917 C206.904608,244.622917 206.166754,244.303472 205.461524,243.664583 C204.823036,243.118011 204.323438,242.427535 204.003862,241.65 C203.861258,241.738591 203.733382,241.848952 203.62487,241.977083 C203.347485,242.247493 203.053284,242.500081 202.744026,242.733333 C202.331902,243.04899 201.903751,243.343132 201.461285,243.614583 C200.925161,243.938427 200.349952,244.19256 199.749574,244.370833 C199.105433,244.570102 198.435138,244.671921 197.760907,244.672917 C196.217175,244.672917 194.942068,244.261111 193.935588,243.4375 C192.929107,242.613889 192.425861,241.380556 192.425861,239.7375 C192.424633,239.006466 192.615664,238.287973 192.979778,237.654167 C193.313564,237.041841 193.755995,236.495431 194.285426,236.041667 C194.923421,235.537805 195.615573,235.10667 196.349058,234.75625 C197.075551,234.384424 197.823786,234.056746 198.589692,233.775 C199.210239,233.555556 200.024447,233.277778 201.032316,232.941667 C202.040184,232.605556 202.744721,232.353472 203.145925,232.185417 C203.447869,232.085417 203.599882,231.833333 203.599882,231.43125 L203.599882,227.654167 C203.599882,226.579167 203.263926,225.745833 202.592013,225.154167 C201.925681,224.56792 201.063583,224.253407 200.17646,224.272917 C199.228207,224.250598 198.314373,224.628702 197.658871,225.314583 C196.98557,226.002083 196.649614,226.9 196.651002,228.008333 C196.651002,229.183333 195.963125,229.770833 194.58737,229.770833 C193.648914,229.770833 192.995049,229.452083 192.625775,228.814583 C192.625775,227.370139 193.682232,225.934722 195.795147,224.508333 C197.908062,223.081944 200.054294,222.366667 202.233845,222.3625 Z M197.500611,241.070833 C198.125267,241.57683 198.913273,241.836902 199.716256,241.802083 C200.652392,241.792173 201.564096,241.501919 202.333799,240.96875 C203.166748,240.413194 203.583223,239.850694 203.583223,239.28125 L203.583223,234.09375 C202.942396,234.365761 202.286804,234.601549 201.619545,234.8 C200.578358,235.136111 199.76415,235.429861 199.176921,235.68125 C198.526961,235.976506 197.944399,236.40193 197.46521,236.93125 C196.928831,237.474119 196.629321,238.207508 196.63224,238.970833 C196.64059,239.884722 196.93004,240.584722 197.500611,241.070833 L197.500611,241.070833 Z" id="Shape" fill-rule="nonzero"></path>
                    <path d="M216.12744,238.477083 L216.12744,216.666667 C216.132487,215.585063 216.031354,214.505577 215.825495,213.44375 C215.657517,212.90625 214.801662,212.6375 213.257929,212.6375 L212.803972,212.6375 C212.595734,212.6375 212.502028,212.454167 212.502028,212.083333 C212.502028,211.547917 212.604064,211.277083 212.803972,211.277083 C213.81184,211.177083 214.743355,211.043056 215.598517,210.875 C216.280055,210.751282 216.952724,210.582864 217.612172,210.370833 C218.097365,210.204167 218.509675,210.04375 218.844937,209.89375 C219.103597,209.781183 219.355938,209.654607 219.600838,209.514583 L219.809075,209.364583 L219.911112,209.364583 C220.081702,209.38722 220.23113,209.490241 220.31301,209.641667 C220.434094,209.797853 220.520042,209.978355 220.564977,210.170833 C220.197091,211.244444 220.012454,212.702778 220.011066,214.545833 L220.011066,237.520833 C220.011066,239.465278 220.145726,240.959028 220.415046,242.002083 C220.481682,242.238194 220.917592,242.465278 221.722776,242.683333 C222.279041,242.857194 222.853332,242.966933 223.434487,243.010417 C223.534441,243.010417 223.601077,243.21875 223.642725,243.614583 C223.685244,243.900395 223.668228,244.191915 223.592748,244.470833 C220.235962,244.304167 218.440262,244.220139 218.205648,244.21875 C218.002964,244.21875 216.173946,244.302778 212.718594,244.470833 C212.58324,244.335417 212.510357,244.054167 212.510357,243.6375 C212.510357,243.220833 212.576993,243.0125 212.718594,243.0125 C213.325361,242.977639 213.925482,242.867776 214.505271,242.685417 C215.292408,242.466667 215.721377,242.239583 215.788013,242.004167 C216.038324,240.845749 216.152242,239.662 216.12744,238.477083 L216.12744,238.477083 Z" id="Path" fill-rule="nonzero"></path>
                    <path d="M228.761198,238.477083 L228.761198,216.666667 C228.767276,215.585017 228.666133,214.50543 228.459254,213.44375 C228.292664,212.90625 227.437503,212.6375 225.89377,212.6375 L225.439813,212.6375 C225.231575,212.6375 225.137869,212.454167 225.137869,212.083333 C225.137869,211.547917 225.237823,211.277083 225.439813,211.277083 C226.446293,211.177083 227.377808,211.043056 228.234358,210.875 C228.915222,210.751329 229.587202,210.582908 230.24593,210.370833 C230.733206,210.204167 231.143433,210.04375 231.480778,209.89375 C231.739006,209.781704 231.990682,209.655112 232.234597,209.514583 L232.442834,209.364583 L232.542788,209.364583 C232.71402,209.386917 232.86421,209.489929 232.946768,209.641667 C233.067853,209.797853 233.1538,209.978355 233.198736,210.170833 C232.828073,211.244444 232.643436,212.702778 232.644824,214.545833 L232.644824,237.520833 C232.644824,239.465278 232.77879,240.959028 233.046722,242.002083 C233.113358,242.238194 233.549963,242.465278 234.356535,242.683333 C234.912756,242.857371 235.487067,242.967114 236.068246,243.010417 C236.1682,243.010417 236.234836,243.21875 236.276483,243.614583 C236.319002,243.900395 236.301987,244.191915 236.226506,244.470833 C232.869721,244.304167 231.074715,244.220139 230.841489,244.21875 C230.640193,244.21875 228.811175,244.302778 225.354435,244.470833 C225.219081,244.335417 225.146198,244.054167 225.146198,243.6375 C225.146198,243.220833 225.212834,243.0125 225.354435,243.0125 C225.961202,242.977639 226.561323,242.867776 227.141112,242.685417 C227.928249,242.466667 228.357218,242.239583 228.423854,242.004167 C228.673277,240.845638 228.786493,239.661912 228.761198,238.477083 Z" id="Path" fill-rule="nonzero"></path>
                    <path d="M248.843606,222.3625 C250.252914,222.3329 251.649482,222.63475 252.920893,223.24375 C254.001188,223.750569 254.929617,224.53216 255.613401,225.510417 C256.206642,226.375735 256.66513,227.326148 256.973191,228.329167 C257.253538,229.251908 257.398045,230.210583 257.40216,231.175 C257.40216,231.847222 257.300818,232.258333 257.098134,232.408333 C256.889896,232.560417 256.510904,232.635417 255.940334,232.635417 L243.256599,232.635417 C242.98589,232.635417 242.852618,232.720833 242.852618,232.8875 C242.849836,234.986775 243.520638,237.031511 244.766319,238.720833 C246.040732,240.501389 247.886408,241.390972 250.30335,241.389583 C250.979947,241.389679 251.654745,241.319864 252.317005,241.18125 C252.875567,241.06982 253.423257,240.909481 253.95375,240.702083 C254.351446,240.544576 254.737629,240.359401 255.109467,240.147917 C255.428764,239.964583 255.706414,239.788194 255.942416,239.61875 L256.29642,239.366667 C256.504657,239.366667 256.598364,239.575 256.598364,240.022917 C256.580226,240.34652 256.475982,240.659396 256.29642,240.929167 C255.623119,241.868056 254.632604,242.715972 253.324873,243.472917 C252.025643,244.225464 250.54891,244.616756 249.047679,244.606456 C246.261463,244.606456 243.870204,243.556944 241.873903,241.458333 C239.877601,239.359722 238.878756,236.799306 238.877368,233.777083 C238.877368,230.252083 239.825541,227.465278 241.721889,225.416667 C243.618237,223.368056 245.992143,222.35 248.843606,222.3625 Z M248.339672,224.224992 C246.594643,224.224992 245.260536,224.972222 244.33735,226.466667 C243.414165,227.961111 242.952572,229.195139 242.952572,230.16875 C242.952572,230.402083 243.054608,230.520833 243.256599,230.520833 L253.072906,230.520833 C253.239496,230.520833 253.322791,230.352083 253.322791,230.016667 C253.322791,228.944444 252.870222,227.710417 251.965084,226.314583 C251.059945,224.91875 249.852863,224.222222 248.343836,224.224992 L248.339672,224.224992 Z" id="Shape" fill-rule="nonzero"></path>
                    <path d="M273.415611,222.310417 C275.396642,222.310417 276.705066,222.796528 277.340884,223.76875 C277.340884,224.94375 277.156247,225.799306 276.786973,226.335417 C276.418393,226.872917 275.954024,227.141667 275.429266,227.141667 C274.825377,227.141667 274.270078,226.85625 273.763367,226.285417 C273.238412,225.705158 272.481084,225.390924 271.699735,225.429167 C270.658548,225.429167 269.752022,225.915278 268.980156,226.8875 C268.208289,227.859722 267.82305,228.884028 267.824438,229.960417 L267.824438,237.514583 C267.824438,239.459028 267.958404,240.952778 268.226336,241.995833 C268.292972,242.231944 268.737212,242.459028 269.559055,242.677083 C270.12404,242.850205 270.706522,242.959908 271.295755,243.004167 C271.397791,243.004167 271.464427,243.2125 271.503992,243.608333 C271.546511,243.894145 271.529496,244.185665 271.454015,244.464583 C268.097229,244.297917 266.28487,244.213889 266.016938,244.2125 C265.814254,244.2125 263.985236,244.296528 260.529885,244.464583 C260.396613,244.329167 260.321647,244.047917 260.321647,243.63125 C260.321647,243.214583 260.390366,243.00625 260.529885,243.00625 C261.13669,242.971709 261.73685,242.861839 262.316561,242.679167 C263.105781,242.460417 263.532667,242.233333 263.601385,241.997917 C263.85461,240.840495 263.972707,239.657581 263.953306,238.472917 L263.953306,228.958333 C263.953306,227.65 263.718692,226.747222 263.249464,226.25 C262.928187,225.857357 262.498848,225.567619 262.014617,225.416667 C261.625035,225.283259 261.218253,225.206777 260.80684,225.189583 C260.488237,225.189583 260.327895,225.158333 260.327895,225.089583 C260.327895,224.282639 260.429237,223.865972 260.631921,223.839583 C264.188615,223.302083 266.504214,222.865278 267.578718,222.529167 C267.663914,222.519304 267.748177,222.502583 267.830685,222.479167 C267.963957,222.479167 268.038923,222.622917 268.08057,222.908333 C268.114526,223.115282 268.114526,223.326385 268.08057,223.533333 L267.778626,226.05 C268.459395,225.065408 269.304722,224.205596 270.277474,223.508333 C271.328378,222.711111 272.374424,222.311806 273.415611,222.310417 Z" id="Path" fill-rule="nonzero"></path>
                    <path d="M286.903142,237.520833 C286.903142,239.465278 287.037802,240.959028 287.307123,242.002083 C287.373759,242.2375 287.811057,242.464583 288.614853,242.683333 C289.171118,242.857194 289.745409,242.966933 290.326564,243.010417 C290.4286,243.010417 290.495236,243.21875 290.534801,243.614583 C290.57732,243.900395 290.560305,244.191915 290.484824,244.470833 C287.128039,244.304167 285.332339,244.220139 285.097725,244.21875 C284.863111,244.217361 283.034093,244.301389 279.610671,244.470833 C279.477399,244.335417 279.402434,244.054167 279.402434,243.6375 C279.402434,243.220833 279.471152,243.0125 279.610671,243.0125 C280.217458,242.97781 280.8176,242.867943 281.397347,242.685417 C282.186567,242.466667 282.613453,242.239583 282.682172,242.004167 C282.935396,240.846745 283.053494,239.663831 283.034093,238.479167 L283.034093,228.958333 C283.034093,227.65 282.799479,226.747222 282.330251,226.25 C282.008973,225.857357 281.579634,225.567619 281.095403,225.416667 C280.705821,225.283259 280.299039,225.206777 279.887627,225.189583 C279.569024,225.189583 279.408681,225.158333 279.408681,225.089583 C279.408681,224.282639 279.510023,223.865972 279.712707,223.839583 C283.269401,223.302083 285.585,222.865278 286.659505,222.529167 L286.759459,222.479167 L286.909389,222.479167 C287.044744,222.479167 287.117627,222.622917 287.161357,222.908333 C287.195313,223.115282 287.195313,223.326385 287.161357,223.533333 C287.002563,224.735295 286.918412,225.945951 286.909389,227.158333 L286.903142,237.520833 Z M282.800867,216.25 C281.931,215.395324 281.787252,214.0443 282.45779,213.025575 C283.128328,212.00685 284.425677,211.605249 285.55411,212.067094 C286.682544,212.528938 287.326563,213.725102 287.091161,214.921919 C286.855758,216.118736 285.80675,216.981589 284.587543,216.98125 C283.916425,216.995764 283.269391,216.730946 282.800867,216.25 Z" id="Shape" fill-rule="nonzero"></path>
                    <path d="M303.164395,222.3625 C304.573681,222.333134 305.970196,222.634972 307.241682,223.24375 C308.321977,223.750569 309.250406,224.53216 309.934191,225.510417 C310.527431,226.375735 310.985919,227.326148 311.29398,228.329167 C311.569148,229.252744 311.709424,230.211267 311.710455,231.175 C311.710455,231.847222 311.609807,232.258333 311.408511,232.408333 C311.200274,232.560417 310.821282,232.635417 310.250711,232.635417 L297.571141,232.635417 C297.302514,232.635417 297.169243,232.720833 297.169243,232.8875 C297.166592,234.986423 297.836583,237.030913 299.080861,238.720833 C300.35805,240.501389 302.204421,241.390972 304.619974,241.389583 C305.296565,241.38956 305.971351,241.319747 306.633629,241.18125 C307.19159,241.070133 307.738616,240.909784 308.268292,240.702083 C308.666817,240.544937 309.053718,240.359752 309.426092,240.147917 C309.744001,239.964583 310.02165,239.788194 310.259041,239.61875 L310.610962,239.366667 C310.819199,239.366667 310.912906,239.575 310.912906,240.022917 C310.895782,240.346713 310.791451,240.65985 310.610962,240.929167 C309.940438,241.868056 308.950616,242.715972 307.641498,243.472917 C306.341501,244.225446 304.864106,244.616723 303.362221,244.606455 C300.576005,244.606455 298.185441,243.556944 296.190527,241.458333 C294.195613,239.359722 293.198157,236.804861 293.198157,233.79375 C293.198157,230.26875 294.146331,227.481944 296.042679,225.433333 C297.939026,223.384722 300.312932,222.361111 303.164395,222.3625 Z M302.660461,224.224992 C300.915432,224.224992 299.581325,224.972222 298.658139,226.466667 C297.734954,227.961111 297.273361,229.195139 297.273361,230.16875 C297.273361,230.402083 297.375397,230.520833 297.575305,230.520833 L307.391613,230.520833 C307.560285,230.520833 307.64358,230.352083 307.64358,230.016667 C307.64358,228.944444 307.190317,227.710417 306.28379,226.314583 C305.377264,224.91875 304.169487,224.222222 302.660461,224.224992 L302.660461,224.224992 Z" id="Shape" fill-rule="nonzero"></path>
                    <path d="M322.59502,222.310417 C323.532308,222.330132 324.466642,222.422773 325.389565,222.5875 C326.512658,222.772222 327.292854,222.898611 327.730153,222.966667 C328.082366,224.658019 328.284448,226.37721 328.334041,228.104167 C328.334041,228.270833 328.115392,228.354167 327.678093,228.354167 C327.207477,228.354167 326.957592,228.2375 326.924274,228.002083 C326.717676,226.991088 326.21877,226.063085 325.489519,225.333333 C324.700994,224.5 323.803491,224.083333 322.79701,224.083333 C320.378681,224.083333 319.17021,225.073611 319.171599,227.054167 C319.165477,227.507852 319.235877,227.959322 319.379836,228.389583 C319.542901,228.817681 319.81067,229.198032 320.158643,229.495833 C320.545965,229.848611 320.839579,230.100694 321.039487,230.252083 C321.470475,230.543293 321.915984,230.81239 322.374289,231.058333 C323.061472,231.44375 323.490441,231.683333 323.657031,231.7875 C323.792385,231.85625 324.185953,232.08125 324.841901,232.466667 C325.497849,232.852083 325.955971,233.13125 326.224597,233.3 C326.493223,233.46875 326.886791,233.754167 327.409467,234.15625 C327.831934,234.466544 328.212062,234.830738 328.540196,235.239583 C328.808735,235.617462 329.03696,236.022451 329.221132,236.447917 C329.433927,236.915074 329.545352,237.422044 329.548065,237.935417 C329.548065,239.915972 328.776198,241.569444 327.232465,242.895833 C325.727054,244.206384 323.790701,244.91421 321.795389,244.883333 C321.147034,244.887036 320.499216,244.845267 319.856699,244.758333 C319.26947,244.675 318.575346,244.536111 317.774326,244.341667 C316.968448,244.133333 316.3479,244.00625 315.912684,243.9375 C315.643063,243.117414 315.449283,242.274291 315.333785,241.41875 C315.172727,240.524337 315.080139,239.618929 315.056829,238.710417 C315.22546,238.554526 315.434884,238.449766 315.660717,238.408333 C316.164651,238.408333 316.431195,238.508333 316.466596,238.710417 C316.666503,239.715972 317.29538,240.697917 318.353226,241.65625 C319.411071,242.614583 320.560541,243.093056 321.801636,243.091667 C322.876141,243.091667 323.756984,242.797917 324.444168,242.210417 C325.131351,241.622917 325.478413,240.775 325.485354,239.666667 C325.489725,239.121005 325.378292,238.580628 325.158422,238.08125 C324.916273,237.565689 324.553395,237.116171 324.100576,236.770833 C323.668182,236.423369 323.213989,236.103965 322.740786,235.814583 C322.324312,235.561806 321.728753,235.234722 320.95411,234.833333 C320.179467,234.431944 319.608897,234.1125 319.242399,233.875 C316.62555,232.365278 315.317126,230.569444 315.317126,228.4875 C315.317126,226.673611 316.04665,225.195833 317.5057,224.054167 C318.952838,222.907628 320.749156,222.292157 322.59502,222.310417 L322.59502,222.310417 Z" id="Path" fill-rule="nonzero"></path>
                    <path d="M210.804893,109.4625 C211.650337,109.4625 213.836829,109.374306 217.364369,109.197917 C217.451947,109.480057 217.478913,109.777534 217.443499,110.070833 C217.42684,110.5125 217.364369,110.733333 217.258168,110.733333 C216.921341,110.742488 216.585748,110.778014 216.254464,110.839583 C215.767962,110.933087 215.301915,111.112256 214.878016,111.36875 C214.384493,111.652083 214.138773,112.020833 214.138773,112.479167 C214.138773,113.504167 216.359971,119.45 220.802368,130.316667 C221.754706,132.716667 222.51269,134.586806 223.076319,135.927083 C223.114927,136.007781 223.186052,136.068216 223.2719,136.093266 C223.357747,136.118316 223.450195,136.105613 223.526112,136.058333 C223.705778,135.984902 223.848365,135.842249 223.921763,135.6625 L231.857687,116.495833 C232.528211,114.76875 232.863474,113.53125 232.863474,112.791667 C232.863474,112.298611 232.580965,111.875 232.015948,111.520833 C231.525858,111.198151 230.977747,110.973853 230.402108,110.860417 C229.989939,110.782133 229.572085,110.737542 229.152684,110.727083 C229.013165,110.727083 228.944447,110.50625 228.944447,110.064583 C228.944447,109.622917 229.015248,109.333333 229.152684,109.191667 C232.434505,109.368056 234.321829,109.45625 234.814657,109.45625 C234.847975,109.45625 236.629099,109.368056 240.158027,109.191667 C240.234122,109.449189 240.269946,109.716938 240.264228,109.985417 C240.264228,110.48125 240.191345,110.727083 240.055991,110.727083 C238.469222,110.727083 237.411377,111.220833 236.882454,112.208333 C236.070328,113.691667 235.206143,115.509028 234.289899,117.660417 L223.709361,142.958333 C223.248462,144.122222 222.631385,144.704861 221.858131,144.70625 C221.632757,144.720243 221.422212,144.59336 221.329208,144.3875 L210.484208,117.025 C209.601282,114.695833 208.807203,113.002083 208.101973,111.94375 C207.856253,111.55625 207.343989,111.25625 206.569346,111.045833 C205.967464,110.861897 205.34476,110.754798 204.716034,110.727083 C204.576515,110.727083 204.507797,110.497917 204.507797,110.039583 C204.507797,109.622917 204.578597,109.333333 204.716034,109.191667 C205.281051,109.227778 205.951575,109.263194 206.727607,109.297917 C207.502249,109.333333 208.199844,109.36875 208.80998,109.404167 C209.420115,109.439583 210.098969,109.4625 210.804893,109.4625 Z" id="Path" fill-rule="nonzero"></path>
                    <path d="M253.49771,121.160226 C255.441259,121.160226 256.834366,121.627778 257.677033,122.5625 C258.5197,123.497222 258.942422,125.005556 258.945199,127.0875 L258.945199,139.314583 C258.921051,139.980634 259.126955,140.63468 259.528263,141.166667 C259.905998,141.656293 260.49729,141.932667 261.115032,141.908333 C261.60786,141.908333 262.224937,141.661111 262.966262,141.166667 C263.107863,141.166667 263.174499,141.308333 263.174499,141.583333 C263.191789,141.971586 263.100184,142.356937 262.910037,142.695833 C261.463482,143.931944 260.228635,144.549306 259.205495,144.547917 C258.396146,144.547917 257.620809,144.2125 256.879484,143.541667 C256.207419,142.967816 255.68138,142.242305 255.344775,141.425 C255.194489,141.517311 255.060166,141.633402 254.947042,141.76875 C254.655375,142.052011 254.346603,142.317093 254.022468,142.5625 C253.63237,142.8625 253.182578,143.171528 252.67309,143.489583 C252.109306,143.829172 251.504762,144.095882 250.87392,144.283333 C250.199369,144.491778 249.497539,144.598505 248.791547,144.6 C247.167296,144.6 245.826941,144.168056 244.770484,143.304167 C243.714026,142.440278 243.185104,141.143056 243.18371,139.4125 C243.182523,138.642374 243.382821,137.885346 243.764698,137.216667 C244.116914,136.573153 244.583342,135.999203 245.141146,135.522917 C245.811602,134.994095 246.538633,134.541325 247.308897,134.172917 C248.071949,133.777894 248.858477,133.43002 249.664061,133.13125 C250.31515,132.902083 251.170311,132.611111 252.229545,132.258333 C253.288779,131.905556 254.02941,131.640972 254.451437,131.464583 C254.767958,131.358333 254.928301,131.09375 254.928301,130.670833 L254.928301,126.7 C254.928301,125.570833 254.574991,124.697917 253.868373,124.08125 C253.168032,123.46527 252.262252,123.13446 251.32996,123.154167 C250.335112,123.127983 249.375196,123.521957 248.685346,124.239583 C247.978727,124.963194 247.626112,125.906944 247.6275,127.070833 C247.6275,128.305556 246.904222,128.922917 245.457667,128.922917 C244.470622,128.922917 243.782745,128.588194 243.394035,127.91875 C243.394035,126.402083 244.504634,124.893056 246.725832,123.391667 C248.947031,121.890278 251.204323,121.146528 253.49771,121.160226 Z M248.525003,140.833333 C249.12195,141.343056 249.897287,141.598611 250.851014,141.6 C251.835096,141.590019 252.793744,141.286041 253.603911,140.727083 C254.485449,140.14375 254.926218,139.552778 254.926218,138.954167 L254.926218,133.502083 C254.25286,133.788012 253.563883,134.035629 252.862586,134.24375 C251.770035,134.596528 250.914873,134.904861 250.297103,135.16875 C249.612385,135.481425 248.999801,135.932562 248.497932,136.49375 C247.934646,137.063582 247.620778,137.833999 247.625367,138.635417 C247.625367,139.583333 247.923197,140.310417 248.525003,140.833333 Z" id="Shape" fill-rule="nonzero"></path>
                    <path d="M278.996371,121.10625 C281.078744,121.10625 282.453805,121.618056 283.121552,122.641667 C283.121552,123.877778 282.927892,124.780556 282.54057,125.35 C282.151166,125.914583 281.676385,126.195833 281.112062,126.195833 C280.48735,126.195833 279.895956,125.897917 279.367033,125.295833 C278.838111,124.69375 278.117609,124.397917 277.1972,124.397917 C276.104649,124.397917 275.15231,124.909028 274.340184,125.93125 C273.528059,126.953472 273.12269,128.029861 273.124078,129.160417 L273.124078,137.083333 C273.124078,139.129167 273.262903,140.699306 273.540553,141.79375 C273.611354,142.039583 274.077805,142.279167 274.94199,142.508333 C275.536165,142.690101 276.148655,142.805389 276.768232,142.852083 C276.874433,142.852083 276.943151,143.060417 276.976469,143.477083 C277.0219,143.776746 277.004167,144.082602 276.92441,144.375 C273.396869,144.2 271.492192,144.111806 271.210377,144.110417 C270.999363,144.110417 269.077333,144.198611 265.444286,144.375 C265.302684,144.235417 265.236048,143.94375 265.236048,143.502083 C265.236048,143.060417 265.304767,142.841667 265.444286,142.841667 C266.080724,142.804404 266.710163,142.688954 267.318422,142.497917 C268.151371,142.26875 268.596999,142.029167 268.6678,141.783333 C268.934539,140.566469 269.058929,139.322698 269.038462,138.077083 L269.038462,128.077083 C269.038462,126.700694 268.791354,125.747917 268.297137,125.21875 C267.96048,124.806797 267.509985,124.503189 267.001901,124.345833 C266.592163,124.205741 266.164308,124.125745 265.731653,124.108333 C265.396391,124.108333 265.229801,124.072917 265.229801,124.002083 C265.229801,123.154167 265.33392,122.714583 265.546322,122.679167 C269.284876,122.113889 271.718476,121.654861 272.847123,121.302083 C272.936597,121.292278 273.025071,121.274853 273.111584,121.25 C273.251103,121.25 273.340645,121.4 273.376046,121.7 C273.410515,121.918788 273.410515,122.141628 273.376046,122.360417 L273.057442,125.00625 C273.772224,123.972603 274.658161,123.068643 275.677068,122.333333 C276.797385,121.518056 277.903819,121.109028 278.996371,121.10625 Z" id="Path" fill-rule="nonzero"></path>
                    <path d="M303.859908,124.49375 C303.859908,123.365972 302.590354,122.801389 300.051247,122.8 C299.909646,122.8 299.84301,122.58125 299.84301,122.139583 C299.84301,121.697917 299.91381,121.40625 300.051247,121.266667 C300.438569,121.301389 301.161152,121.354167 302.218998,121.425 C303.276843,121.495833 304.229182,121.53125 305.076014,121.53125 L310.367324,121.266667 C310.44474,121.523906 310.480591,121.791864 310.473525,122.060417 C310.473525,122.554167 310.348583,122.8 310.102863,122.8 C309.43244,122.834246 308.77172,122.97489 308.145432,123.216667 C307.333306,123.494444 306.786336,123.953472 306.504522,124.59375 L298.093816,143.59375 C297.968869,143.914461 297.751416,144.190755 297.469104,144.3875 C297.117183,144.670833 296.815239,144.804167 296.569519,144.804167 C296.323799,144.804167 296.153044,144.733333 296.094738,144.595833 C295.493626,143.291667 294.179649,140.257639 292.152805,135.49375 C290.125962,130.729861 288.353862,126.847917 286.836506,123.847917 C286.482503,123.14375 285.441316,122.790972 283.712946,122.789583 C283.574122,122.789583 283.504709,122.560417 283.504709,122.102083 C283.504709,121.685417 283.57551,121.395833 283.712946,121.25625 C287.344605,121.432639 289.178482,121.520833 289.214577,121.520833 L294.503805,121.25625 C294.574605,121.395833 294.582935,121.6875 294.530876,122.129167 C294.478816,122.570833 294.399686,122.789583 294.293485,122.789583 C292.565115,122.789583 291.70093,123.089583 291.70093,123.689583 C291.702011,123.762113 291.719828,123.833411 291.75299,123.897917 L298.102146,138.241667 L303.445516,126.066667 C303.67952,125.572451 303.820019,125.039154 303.859908,124.49375 L303.859908,124.49375 Z" id="Path" fill-rule="nonzero"></path>
                    <path d="M322.057768,121.160226 C324.001316,121.160226 325.394424,121.627778 326.237091,122.5625 C327.079758,123.497222 327.503174,125.005556 327.507339,127.0875 L327.507339,139.314583 C327.483952,139.980201 327.688974,140.633779 328.088321,141.166667 C328.466055,141.656293 329.057348,141.932667 329.675089,141.908333 C330.167918,141.908333 330.785688,141.661111 331.528401,141.166667 C331.667921,141.166667 331.736639,141.308333 331.736639,141.583333 C331.753929,141.971586 331.662324,142.356937 331.472177,142.695833 C330.02701,143.931944 328.792857,144.549306 327.769718,144.547917 C326.957592,144.547917 326.181561,144.2125 325.441624,143.541667 C324.770204,142.967219 324.244287,142.241876 323.906915,141.425 C323.757521,141.517698 323.623943,141.633753 323.511264,141.76875 C323.218352,142.051447 322.908923,142.316497 322.584608,142.5625 C322.150795,142.894186 321.700422,143.203612 321.23523,143.489583 C320.67238,143.829553 320.068476,144.09629 319.438142,144.283333 C318.763543,144.491566 318.061745,144.598289 317.355769,144.6 C315.734294,144.6 314.39394,144.168056 313.334706,143.304167 C312.275472,142.440278 311.74655,141.143056 311.74793,139.4125 C311.746504,138.642072 311.947581,137.884809 312.331002,137.216667 C312.682598,136.573325 313.148311,135.999386 313.705369,135.522917 C314.37627,134.993667 315.10404,134.540872 315.875202,134.172917 C316.637577,133.777972 317.423408,133.430099 318.228283,133.13125 C318.882149,132.902083 319.73731,132.611111 320.793767,132.258333 C321.850225,131.905556 322.590855,131.640972 323.01566,131.464583 C323.333569,131.357639 323.492523,131.093056 323.492523,130.670833 L323.492523,126.7 C323.492523,125.570833 323.139908,124.697917 322.434677,124.08125 C321.734127,123.465625 320.82849,123.134867 319.896264,123.154167 C318.900699,123.127393 317.939912,123.521414 317.249568,124.239583 C316.542949,124.963194 316.190334,125.906944 316.191722,127.070833 C316.191722,128.305556 315.469139,128.922917 314.023972,128.922917 C313.035539,128.922917 312.347661,128.588194 311.96034,127.91875 C311.96034,126.402083 313.070939,124.893056 315.292137,123.391667 C317.513335,121.890278 319.768546,121.146528 322.057768,121.160226 Z M317.08506,140.833333 C317.684784,141.343056 318.460815,141.598611 319.413154,141.6 C320.396544,141.589731 321.354445,141.285761 322.163969,140.727083 C323.045507,140.14375 323.486276,139.552778 323.486276,138.954167 L323.486276,133.502083 C322.812917,133.788012 322.123941,134.035629 321.422644,134.24375 C320.330092,134.596528 319.474931,134.904861 318.85716,135.16875 C318.173081,135.482511 317.560706,135.933496 317.05799,136.49375 C316.495674,137.064222 316.181977,137.834219 316.185446,138.635417 C316.185446,139.582639 316.485337,140.315278 317.08506,140.833333 Z" id="Shape" fill-rule="nonzero"></path>
                    <path d="M347.548099,121.10625 C349.630472,121.10625 351.006227,121.618056 351.675363,122.641667 C351.675363,123.877778 351.481702,124.780556 351.094381,125.35 C350.707059,125.919444 350.23089,126.201389 349.665873,126.195833 C349.041161,126.195833 348.447684,125.897917 347.918762,125.295833 C347.389839,124.69375 346.669338,124.397917 345.751011,124.397917 C344.655683,124.397917 343.703344,124.909028 342.893995,125.93125 C342.084646,126.953472 341.678583,128.029861 341.675806,129.160417 L341.675806,137.083333 C341.675806,139.129167 341.814631,140.699306 342.092281,141.79375 C342.160999,142.039583 342.629533,142.279167 343.493718,142.508333 C344.08724,142.689867 344.699014,142.805152 345.317877,142.852083 C345.424078,142.852083 345.494879,143.060417 345.526115,143.477083 C345.570454,143.776795 345.552734,144.082427 345.474055,144.375 C341.946515,144.2 340.041838,144.111806 339.760023,144.110417 C339.547621,144.110417 337.62559,144.198611 333.993931,144.375 C333.85233,144.235417 333.785694,143.94375 333.785694,143.502083 C333.785694,143.060417 333.856495,142.841667 333.993931,142.841667 C334.630349,142.804236 335.259768,142.68879 335.868067,142.497917 C336.701017,142.26875 337.144562,142.029167 337.215363,141.783333 C337.483135,140.566633 337.607537,139.322741 337.586025,138.077083 L337.586025,128.077083 C337.586025,126.700694 337.339611,125.747917 336.846783,125.21875 C336.509567,124.80646 336.058304,124.502822 335.549464,124.345833 C335.139726,124.205741 334.711871,124.125745 334.279217,124.108333 C333.943954,124.108333 333.777365,124.072917 333.777365,124.002083 C333.777365,123.154167 333.883566,122.714583 334.093885,122.679167 C337.833828,122.113889 340.267428,121.654861 341.394686,121.302083 C341.484217,121.292657 341.572725,121.275226 341.659147,121.25 C341.800749,121.25 341.888209,121.4 341.925691,121.7 C341.960161,121.918788 341.960161,122.141628 341.925691,122.360417 L341.607088,125.00625 C342.321869,123.972603 343.207807,123.068643 344.226714,122.333333 C345.353972,121.518056 346.4611,121.109028 347.548099,121.10625 Z" id="Path" fill-rule="nonzero"></path>
                    <path d="M364.538183,121.160226 C366.481731,121.160226 367.874839,121.627778 368.717506,122.5625 C369.560173,123.497222 369.983589,125.005556 369.987753,127.0875 L369.987753,139.314583 C369.964367,139.980201 370.169388,140.633779 370.568736,141.166667 C370.947572,141.656068 371.539334,141.932299 372.157586,141.908333 C372.650415,141.908333 373.267491,141.661111 374.008816,141.166667 C374.148335,141.166667 374.217054,141.308333 374.217054,141.583333 C374.234344,141.971586 374.142739,142.356937 373.952592,142.695833 C372.507425,143.931944 371.273272,144.549306 370.250132,144.547917 C369.438007,144.547917 368.661976,144.2125 367.922039,143.541667 C367.251375,142.966522 366.725599,142.241374 366.38733,141.425 C366.237935,141.517698 366.104357,141.633753 365.991679,141.76875 C365.699698,142.05247 365.390204,142.317575 365.065023,142.5625 C364.677702,142.8625 364.228603,143.171528 363.717728,143.489583 C363.153943,143.829172 362.549399,144.095882 361.918557,144.283333 C361.243992,144.491717 360.542172,144.598443 359.836184,144.6 C358.214709,144.6 356.874355,144.168056 355.815121,143.304167 C354.755887,142.440278 354.226964,141.143056 354.228345,139.4125 C354.226919,138.642072 354.427996,137.884809 354.811417,137.216667 C355.163013,136.573325 355.628726,135.999386 356.185783,135.522917 C356.856685,134.993667 357.584455,134.540872 358.355616,134.172917 C359.117991,133.777972 359.903822,133.430099 360.708698,133.13125 C361.362563,132.902083 362.216336,132.610417 363.276264,132.258333 C364.336192,131.90625 365.073353,131.633333 365.498157,131.464583 C365.814677,131.357639 365.972938,131.093056 365.972938,130.670833 L365.972938,126.7 C365.972938,125.570833 365.620323,124.697917 364.915092,124.08125 C364.214541,123.465625 363.308904,123.134867 362.376679,123.154167 C361.381114,123.127393 360.420326,123.521414 359.729983,124.239583 C359.023364,124.963194 358.670749,125.906944 358.672137,127.070833 C358.672137,128.305556 357.949554,128.922917 356.504387,128.922917 C355.515953,128.922917 354.828076,128.588194 354.440755,127.91875 C354.440755,126.402083 355.551354,124.893056 357.772552,123.391667 C359.99375,121.890278 362.24896,121.146528 364.538183,121.160226 Z M359.565475,140.833333 C360.165199,141.343056 360.94123,141.598611 361.893569,141.6 C362.877,141.589985 363.834972,141.285991 364.644384,140.727083 C365.525922,140.14375 365.966691,139.552778 365.966691,138.954167 L365.966691,133.502083 C365.293332,133.788012 364.604356,134.035629 363.903059,134.24375 C362.810507,134.596528 361.955346,134.904861 361.337575,135.16875 C360.653818,135.482034 360.042033,135.933106 359.540487,136.49375 C358.976633,137.063371 358.662033,137.833745 358.665855,138.635417 C358.665855,139.582639 358.965752,140.315278 359.565475,140.833333 Z" id="Shape" fill-rule="nonzero"></path>
                    <path d="M197.254891,157.822917 C198.538346,157.828399 199.814721,158.013527 201.046892,158.372917 C202.375932,158.760106 203.650729,159.313799 204.840976,160.020833 C206.116791,160.787014 207.176116,161.866188 207.918724,163.15625 C208.744962,164.592906 209.162628,166.228319 209.126501,167.885417 C209.126501,169.425694 208.549683,171.038889 207.396048,172.725 C206.216843,174.433404 204.590992,175.7847 202.696132,176.63125 C202.329634,176.777083 202.219963,176.960417 202.367117,177.18125 C204.196829,181.03125 206.303497,184.257639 208.68712,186.860417 C212.206331,190.710417 215.064735,192.634722 217.262333,192.633333 C217.377491,192.873661 217.434556,193.13771 217.428923,193.404167 C217.439556,193.691177 217.382486,193.976659 217.262333,194.2375 C216.777471,194.357182 216.278976,194.412518 215.779683,194.402083 C210.643162,194.402083 206.190354,191.763194 202.421259,186.485417 C201.834029,185.679861 201.164893,184.717361 200.413851,183.597917 C199.662808,182.478472 199.113062,181.672222 198.764611,181.179167 C198.416161,180.683333 198.013569,180.142361 197.556835,179.55625 C197.198324,179.076925 196.793042,178.634468 196.346976,178.235417 C196.005057,177.94793 195.626162,177.707595 195.220412,177.520833 C194.816431,177.375 194.13966,177.3 193.185933,177.3 C192.965514,177.296738 192.745094,177.306477 192.525821,177.329167 C192.356143,177.360037 192.201559,177.446526 192.08644,177.575 C191.932381,177.758881 191.857494,177.996379 191.878203,178.235417 L191.878203,186.320833 C191.878203,188.776389 192.024663,190.373611 192.317584,191.1125 C192.500832,191.588889 193.151227,191.974306 194.268767,192.26875 C195.386308,192.563194 196.183162,192.709722 196.659332,192.708333 C196.805098,192.708333 196.880063,192.964583 196.880063,193.477083 C196.887934,193.758972 196.850675,194.040306 196.769698,194.310417 C193.104721,194.129861 190.722486,194.038194 189.622993,194.035417 L182.917751,194.310417 C182.807385,194.202083 182.751161,193.870833 182.751161,193.320833 C182.751161,192.845833 182.807385,192.60625 182.917751,192.60625 C183.641877,192.575153 184.360419,192.464772 185.060513,192.277083 C185.976757,192.05625 186.526503,191.778472 186.709752,191.44375 C186.96519,191.004861 187.093603,189.28125 187.094991,186.272917 L187.094991,165.485417 C187.094991,163.322917 186.966578,161.746528 186.709752,160.75625 C186.598692,160.463194 186.057969,160.185417 185.087584,159.922917 C184.381722,159.710571 183.653535,159.581227 182.917751,159.5375 C182.769902,159.5375 182.697019,159.316667 182.697019,158.877083 C182.697019,158.402083 182.769902,158.089583 182.917751,157.941667 L189.514709,158.052083 C190.611426,158.052083 191.912215,158.015278 193.417077,157.941667 C194.921938,157.868056 196.20121,157.828472 197.254891,157.822917 Z M196.374047,160.241667 C194.724807,160.241667 193.442065,160.370139 192.525821,160.627083 C192.380055,160.664583 192.259277,160.802083 192.169735,161.04375 C192.080193,161.285417 192.005228,161.83125 191.949003,162.69375 C191.892779,163.55625 191.867791,164.885417 191.867791,166.68125 L191.867791,173.333333 C191.867791,174.395833 193.464277,174.927083 196.657249,174.927083 L198.031616,174.927083 C199.314358,174.927083 200.642912,174.286111 202.017278,173.004167 C203.391645,171.722222 204.078828,170.016667 204.078828,167.8875 C204.074663,162.793056 201.50432,160.244444 196.367791,160.241667 L196.374047,160.241667 Z" id="Shape" fill-rule="nonzero"></path>
                    <path d="M230.841489,170.085417 C234.139968,170.085417 236.961584,171.277083 239.306336,173.660417 C241.599752,175.920163 242.870366,179.019512 242.823465,182.239583 C242.823465,185.614583 241.67816,188.502083 239.387549,190.902083 C237.096938,193.302083 234.284346,194.502778 230.949772,194.504167 C227.617975,194.504167 224.778312,193.303472 222.430783,190.902083 C220.129731,188.613079 218.859161,185.485583 218.911573,182.239583 C218.911573,178.83125 220.047854,175.953472 222.320418,173.60625 C224.592981,171.259028 227.433338,170.085417 230.841489,170.085417 Z M230.235518,172.23125 C228.29197,172.23125 226.707284,173.120139 225.48146,174.897917 C224.255637,176.675694 223.642031,178.847917 223.640642,181.414583 C223.640642,184.422917 224.418756,186.998611 225.974983,189.141667 C227.53121,191.284722 229.354675,192.357639 231.445377,192.360417 C233.388926,192.360417 234.985412,191.44375 236.234836,189.610417 C237.48426,187.777083 238.108972,185.577083 238.108972,183.010417 C238.108972,180.039583 237.321141,177.500694 235.745478,175.39375 C234.169816,173.286806 232.333162,172.232639 230.235518,172.23125 L230.235518,172.23125 Z" id="Shape" fill-rule="nonzero"></path>
                    <path d="M252.333664,191.533333 C252.333664,191.791667 252.554395,191.91875 252.993776,191.91875 L260.194623,191.91875 C261.734191,191.91875 262.861449,191.534028 263.576397,190.764583 C264.290651,189.99375 264.848727,188.914583 265.242296,187.51875 C265.315179,187.116667 265.450533,186.914583 265.681676,186.914583 C266.486861,186.914583 267.017866,187.134722 267.274692,187.575 L266.121057,194.11875 L247.587935,194.11875 C246.85494,193.679861 246.488442,193.258333 246.488442,192.854167 C246.479142,192.776126 246.499182,192.697414 246.544666,192.633333 L260.671486,173.002083 L252.481512,172.945833 C251.835743,172.919955 251.198879,173.103357 250.665683,173.46875 C250.258712,173.738366 249.927511,174.107731 249.703626,174.541667 C249.507371,174.997229 249.342479,175.465682 249.210104,175.94375 C249.045596,176.5125 248.94356,176.85 248.90816,176.960417 C248.797794,177.18125 248.358413,177.289583 247.587935,177.289583 C247.183954,177.289583 246.984047,177.235417 246.984047,177.125 C246.984047,176.986111 247.111766,176.115278 247.367203,174.5125 C247.622641,172.909722 247.787843,171.5625 247.862808,170.470833 C250.024312,170.691667 251.765176,170.801389 253.0854,170.8 L259.790642,170.8 C262.033241,170.789184 264.273123,170.642387 266.497967,170.360417 C266.609026,170.545139 266.663862,170.985417 266.662474,171.68125 L252.700161,190.764583 C252.462771,191.13125 252.333664,191.389583 252.333664,191.533333 Z" id="Path" fill-rule="nonzero"></path>
                    <path d="M280.533162,170.141667 C282.5489,170.141667 283.996843,170.627778 284.876993,171.6 C285.757143,172.572222 286.196524,174.139583 286.195135,176.302083 L286.195135,189.010417 C286.169885,189.702703 286.383892,190.382542 286.801106,190.935417 C287.193021,191.445177 287.80807,191.732643 288.450346,191.70625 C288.962609,191.70625 289.60398,191.449306 290.374459,190.935417 C290.520225,190.935417 290.582696,191.083333 290.582696,191.375 C290.601035,191.778558 290.505799,192.179164 290.307823,192.53125 C288.804349,193.814583 287.521607,194.45625 286.459597,194.45625 C285.61693,194.45625 284.811051,194.109028 284.041961,193.414583 C283.343132,192.818428 282.796335,192.064272 282.446863,191.214583 C282.289684,191.310848 282.149053,191.431846 282.030389,191.572917 C281.727721,191.870856 281.406384,192.149198 281.068332,192.40625 C280.664352,192.717361 280.197206,193.038194 279.666895,193.36875 C279.08027,193.725369 278.450443,194.005421 277.792759,194.202083 C277.089199,194.419348 276.357156,194.530294 275.620844,194.53125 C273.934122,194.53125 272.541708,194.081944 271.443603,193.183333 C270.345498,192.284722 269.795752,190.9375 269.794331,189.141667 C269.791358,188.338021 269.999617,187.54771 270.398252,186.85 C270.763788,186.181995 271.247853,185.586165 271.82676,185.091667 C272.523524,184.541118 273.280025,184.070795 274.08197,183.689583 C274.87443,183.282801 275.690832,182.924504 276.526676,182.616667 C277.20553,182.379167 278.094703,182.076389 279.194196,181.708333 C280.29369,181.340278 281.062779,181.0625 281.501466,180.875 C281.832563,180.764583 281.997071,180.491667 281.997071,180.041667 L281.997071,175.916667 C281.997071,174.743056 281.630573,173.835417 280.897578,173.19375 C280.16965,172.553653 279.228118,172.210173 278.259211,172.23125 C277.225551,172.204813 276.228276,172.613733 275.510478,173.358333 C274.777483,174.111111 274.410985,175.091667 274.410985,176.3 C274.410985,177.586111 273.659942,178.227778 272.157857,178.225 C271.131941,178.225 270.416993,177.877778 270.013013,177.183333 C270.013013,175.606944 271.167342,174.039583 273.475999,172.48125 C275.784657,170.922917 278.137045,170.143056 280.533162,170.141667 Z M275.366794,190.572917 C275.990118,191.103472 276.795997,191.36875 277.78443,191.36875 C278.80651,191.358925 279.802263,191.0433 280.643528,190.4625 C281.559772,189.85625 282.017895,189.24375 282.017895,188.61875 L282.017895,182.95625 C281.317559,183.251607 280.601532,183.508244 279.87305,183.725 C278.738851,184.091667 277.850372,184.4125 277.207612,184.6875 C276.494954,185.011877 275.856921,185.479984 275.333476,186.0625 C274.747732,186.655111 274.421165,187.456168 274.425518,188.289583 C274.429726,189.279861 274.743471,190.040972 275.366794,190.572917 L275.366794,190.572917 Z" id="Shape" fill-rule="nonzero"></path>
                </g>
            </g>
        </g>
    </g>
</svg>