<?xml version="1.0" standalone="no"?>
<!DOCTYPE svg PUBLIC "-//W3C//DTD SVG 20010904//EN"
 "http://www.w3.org/TR/2001/REC-SVG-20010904/DTD/svg10.dtd">
<svg version="1.0" xmlns="http://www.w3.org/2000/svg"
 width="241.000000pt" height="241.000000pt" viewBox="0 0 241.000000 241.000000"
 preserveAspectRatio="xMidYMid meet">
<metadata>
Created by potrace 1.11, written by Peter Selinger 2001-2013
</metadata>
<g transform="translate(0.000000,241.000000) scale(0.100000,-0.100000)"
fill="#000000" stroke="none">
<path d="M60 2366 l0 -44 53 -6 c67 -9 121 -46 169 -116 34 -49 153 -320 605
-1375 64 -148 124 -290 135 -314 11 -25 63 -144 114 -265 52 -122 101 -226
109 -232 8 -6 27 -9 43 -6 26 3 33 15 82 130 29 70 65 152 78 182 59 130 122
283 122 294 0 6 -42 111 -94 231 -80 188 -282 662 -490 1152 -70 164 -74 209
-22 257 36 35 92 55 170 63 88 8 91 9 90 26 -1 10 -2 28 -3 42 l-1 24 -580 0
-580 0 0 -43z"/>
<path d="M1862 2338 c16 -40 41 -100 55 -133 14 -33 31 -73 39 -90 7 -16 40
-92 72 -167 57 -133 60 -136 72 -110 7 15 48 110 92 212 44 102 94 214 110
250 17 36 34 75 39 88 l9 22 -260 0 -259 0 31 -72z"/>
</g>
</svg>
