<svg width="26" height="24" viewBox="0 0 26 24" fill="none" xmlns="http://www.w3.org/2000/svg">
<path d="M24.9318 4.33873H4.60293L4.30075 0.972337C4.25133 0.421822 3.78995 0 3.23724 0H1.06778C0.478059 0 0 0.478059 0 1.06778C0 1.65749 0.478059 2.13555 1.06778 2.13555H2.26104C2.91315 9.4006 1.22779 -9.37686 3.48914 15.8178C3.57629 16.8039 4.10911 17.874 5.02699 18.6011C3.37209 20.7145 4.88416 23.8301 7.57613 23.8301C9.81042 23.8301 11.3863 21.6017 10.6201 19.4911H16.4642C15.699 21.599 17.2714 23.8301 19.5082 23.8301C21.2932 23.8301 22.7454 22.3778 22.7454 20.5928C22.7454 18.8078 21.2932 17.3556 19.5082 17.3556H7.58335C6.77224 17.3556 6.06543 16.8662 5.76035 16.1533L22.8248 15.1504C23.2907 15.123 23.6849 14.7962 23.7981 14.3434L25.9677 5.66547C26.1359 4.99257 25.6265 4.33873 24.9318 4.33873ZM7.57613 21.6945C6.96872 21.6945 6.47449 21.2003 6.47449 20.5928C6.47449 19.9854 6.96872 19.4911 7.57613 19.4911C8.18359 19.4911 8.67782 19.9854 8.67782 20.5928C8.67782 21.2003 8.18359 21.6945 7.57613 21.6945ZM19.5081 21.6945C18.9007 21.6945 18.4064 21.2003 18.4064 20.5928C18.4064 19.9854 18.9007 19.4911 19.5081 19.4911C20.1156 19.4911 20.6098 19.9854 20.6098 20.5928C20.6098 21.2003 20.1156 21.6945 19.5081 21.6945ZM21.9165 13.0645L5.47291 14.0309L4.79462 6.47423H23.5642L21.9165 13.0645Z" fill="#000"/>
</svg>
