<?xml version="1.0" encoding="UTF-8"?>
<svg width="39px" height="39px" viewBox="0 0 39 39" version="1.1" xmlns="http://www.w3.org/2000/svg" xmlns:xlink="http://www.w3.org/1999/xlink">
    <!-- Generator: Sketch 59.1 (86144) - https://sketch.com -->
    <title>Group 5</title>
    <desc>Created with Sketch.</desc>
    <g id="Website" stroke="none" stroke-width="1" fill="none" fill-rule="evenodd">
        <g id="Contact" transform="translate(-233.000000, -596.000000)">
            <g id="Group-2" transform="translate(233.000000, 269.000000)">
                <g id="Group">
                    <g id="Group-5" transform="translate(0.000000, 327.000000)">
                        <g id="Group-4">
                            <circle id="Oval" fill="#8A8A8A" cx="19.5" cy="19.5" r="19.5"></circle>
                            <path d="M20.0156068,10.9988504 C21.8577698,11.0004192 22.1695089,11.011746 23.0036253,11.0498043 C23.908384,11.0910708 24.5263017,11.2347781 25.0669839,11.4449234 C25.6259543,11.6621208 26.099996,11.9527746 26.5725868,12.4253317 C27.0451438,12.8979225 27.3357976,13.3719642 27.5530288,13.9309346 C27.7631404,14.4716168 27.9068477,15.0895345 27.9481142,15.9942932 C27.9861725,16.8284095 27.9974993,17.1401487 27.9990681,18.982338 L27.9990681,20.0156068 C27.9974993,21.8577698 27.9861725,22.1695089 27.9481142,23.0036253 C27.9068477,23.908384 27.7631404,24.5263017 27.5530288,25.0669839 C27.3357976,25.6259543 27.0451438,26.099996 26.5725868,26.5725868 C26.099996,27.0451438 25.6259543,27.3357976 25.0669839,27.5530288 C24.5263017,27.7631404 23.908384,27.9068477 23.0036253,27.9481142 C22.1695089,27.9861725 21.8577698,27.9974993 20.0156068,27.9990681 L18.982338,27.9990681 C17.1401487,27.9974993 16.8284095,27.9861725 15.9942932,27.9481142 C15.0895345,27.9068477 14.4716168,27.7631404 13.9309346,27.5530288 C13.3719642,27.3357976 12.8979225,27.0451438 12.4253317,26.5725868 C11.9527746,26.099996 11.6621208,25.6259543 11.4449234,25.0669839 C11.2347781,24.5263017 11.0910708,23.908384 11.0498043,23.0036253 C11.011746,22.1695089 11.0004192,21.8577698 10.9988504,20.0156068 L10.9988504,18.982338 C11.0004192,17.1401487 11.011746,16.8284095 11.0498043,15.9942932 C11.0910708,15.0895345 11.2347781,14.4716168 11.4449234,13.9309346 C11.6621208,13.3719642 11.9527746,12.8979225 12.4253317,12.4253317 C12.8979225,11.9527746 13.3719642,11.6621208 13.9309346,11.4449234 C14.4716168,11.2347781 15.0895345,11.0910708 15.9942932,11.0498043 C16.8284095,11.011746 17.1401487,11.0004192 18.982338,10.9988504 Z M20.2614434,12.5306881 L18.7364977,12.5306881 C17.1522668,12.5329071 16.8483882,12.5440193 16.0641054,12.5798027 C15.2353338,12.6175938 14.7852489,12.756071 14.485721,12.872481 C14.0889485,13.0266821 13.8057854,13.2108798 13.5083495,13.5083495 C13.2108798,13.8057854 13.0266821,14.0889485 12.872481,14.485721 C12.756071,14.7852489 12.6175938,15.2353338 12.5798027,16.0641054 C12.5440193,16.8483882 12.5329071,17.1522668 12.5306881,18.7364977 L12.5306881,20.2614434 C12.5329071,21.8456517 12.5440193,22.1495303 12.5798027,22.933813 C12.6175938,23.7625847 12.756071,24.2126695 12.872481,24.5121975 C13.0266821,24.90897 13.2109135,25.192133 13.5083495,25.489569 C13.8057854,25.7870387 14.0889485,25.9712364 14.485721,26.1254375 C14.7852489,26.2418474 15.2353338,26.3803247 16.0641054,26.4181158 C16.8482996,26.4538992 17.1521155,26.4650114 18.7364451,26.4672303 L20.2614974,26.4672303 C21.8458104,26.4650114 22.1496484,26.4538992 22.933813,26.4181158 C23.7625847,26.3803247 24.2126695,26.2418474 24.5121975,26.1254375 C24.90897,25.9712364 25.192133,25.7870387 25.489569,25.489569 C25.7870387,25.192133 25.9712364,24.90897 26.1254375,24.5121975 C26.2418474,24.2126695 26.3803247,23.7625847 26.4181158,22.933813 C26.4538992,22.1495303 26.4650114,21.8456517 26.4672303,20.2614434 L26.4672303,18.7364977 C26.4650114,17.1522668 26.4538992,16.8483882 26.4181158,16.0641054 C26.3803247,15.2353338 26.2418474,14.7852489 26.1254375,14.485721 C25.9712364,14.0889485 25.7870387,13.8057854 25.489569,13.5083495 C25.192133,13.2108798 24.90897,13.0266821 24.5121975,12.872481 C24.2126695,12.756071 23.7625847,12.6175938 22.933813,12.5798027 C22.1495303,12.5440193 21.8456517,12.5329071 20.2614434,12.5306881 Z M19.4989761,15.133939 C21.9097088,15.133939 23.8639795,17.0882096 23.8639795,19.4989761 C23.8639795,21.9097088 21.9097088,23.8639795 19.4989761,23.8639795 C17.0882096,23.8639795 15.133939,21.9097088 15.133939,19.4989761 C15.133939,17.0882096 17.0882096,15.133939 19.4989761,15.133939 Z M19.4989761,16.6655233 C17.9340885,16.6655233 16.6655233,17.9340885 16.6655233,19.4989761 C16.6655233,21.06383 17.9340885,22.3323952 19.4989761,22.3323952 C21.06383,22.3323952 22.3323952,21.06383 22.3323952,19.4989761 C22.3323952,17.9340885 21.06383,16.6655233 19.4989761,16.6655233 Z M24.0364349,13.9414284 C24.5997918,13.9414284 25.0564901,14.3981267 25.0564901,14.9614835 C25.0564901,15.5248404 24.5997918,15.981505 24.0364349,15.981505 C23.4731118,15.981505 23.0164135,15.5248404 23.0164135,14.9614835 C23.0164135,14.3981267 23.4731118,13.9414284 24.0364349,13.9414284 Z" id="Instagram" fill="#FCFCFC"></path>
                        </g>
                    </g>
                </g>
            </g>
        </g>
    </g>
</svg>