<?xml version="1.0" encoding="UTF-8"?>
<svg width="17px" height="17px" viewBox="0 0 17 17" version="1.1" xmlns="http://www.w3.org/2000/svg" xmlns:xlink="http://www.w3.org/1999/xlink">
    <!-- Generator: Sketch 59.1 (86144) - https://sketch.com -->
    <title>Group</title>
    <desc>Created with Sketch.</desc>
    <g id="Website" stroke="none" stroke-width="1" fill="none" fill-rule="evenodd">
        <g id="Home-page" transform="translate(-1232.000000, -957.000000)" fill="#000000">
            <g id="Group" transform="translate(1232.000000, 957.000000)">
                <path d="M9.01633967,-0.000416652013 C10.8585027,0.00115207034 11.1702419,0.0124789173 12.0043582,0.0505372223 C12.9091169,0.091803719 13.5270346,0.235511004 14.0677168,0.445656337 C14.6266872,0.662853752 15.1007289,0.953507557 15.5733197,1.42606462 C16.0458768,1.89865542 16.3365306,2.37269713 16.5537617,2.93166752 C16.7638733,3.47234973 16.9075806,4.09026744 16.9488471,4.9950261 C16.9869054,5.82914246 16.9982322,6.14088158 16.999801,7.98307092 L16.999801,9.01633967 C16.9982322,10.8585027 16.9869054,11.1702419 16.9488471,12.0043582 C16.9075806,12.9091169 16.7638733,13.5270346 16.5537617,14.0677168 C16.3365306,14.6266872 16.0458768,15.1007289 15.5733197,15.5733197 C15.1007289,16.0458768 14.6266872,16.3365306 14.0677168,16.5537617 C13.5270346,16.7638733 12.9091169,16.9075806 12.0043582,16.9488471 C11.1702419,16.9869054 10.8585027,16.9982322 9.01633967,16.999801 L7.98307092,16.999801 C6.14088158,16.9982322 5.82914246,16.9869054 4.9950261,16.9488471 C4.09026744,16.9075806 3.47234973,16.7638733 2.93166752,16.5537617 C2.37269713,16.3365306 1.89865542,16.0458768 1.42606462,15.5733197 C0.953507557,15.1007289 0.662853752,14.6266872 0.445656337,14.0677168 C0.235511004,13.5270346 0.091803719,12.9091169 0.0505372223,12.0043582 C0.0124789173,11.1702419 0.00115207034,10.8585027 -0.000416652013,9.01633967 L-0.000416652013,7.98307092 C0.00115207034,6.14088158 0.0124789173,5.82914246 0.0505372223,4.9950261 C0.091803719,4.09026744 0.235511004,3.47234973 0.445656337,2.93166752 C0.662853752,2.37269713 0.953507557,1.89865542 1.42606462,1.42606462 C1.89865542,0.953507557 2.37269713,0.662853752 2.93166752,0.445656337 C3.47234973,0.235511004 4.09026744,0.091803719 4.9950261,0.0505372223 C5.82914246,0.0124789173 6.14088158,0.00115207034 7.98307092,-0.000416652013 Z M9.26217632,1.53142106 L7.7372306,1.53142106 C6.15299968,1.53363999 5.84912111,1.54475219 5.06483835,1.58053561 C4.23606673,1.61832668 3.78598186,1.75680395 3.4864539,1.87321394 C3.08968143,2.02741499 2.80651835,2.21161271 2.5090824,2.5090824 C2.21161271,2.80651835 2.02741499,3.08968143 1.87321394,3.4864539 C1.75680395,3.78598186 1.61832668,4.23606673 1.58053561,5.06483835 C1.54475219,5.84912111 1.53363999,6.15299968 1.53142106,7.7372306 L1.53142106,9.26217632 C1.53363999,10.8463846 1.54475219,11.1502632 1.58053561,11.934546 C1.61832668,12.7633176 1.75680395,13.2134025 1.87321394,13.5129304 C2.02741499,13.9097029 2.21164645,14.192866 2.5090824,14.4903019 C2.80651835,14.7877716 3.08968143,14.9719693 3.4864539,15.1261704 C3.78598186,15.2425804 4.23606673,15.3810576 5.06483835,15.4188487 C5.84903254,15.4546321 6.15284837,15.4657443 7.73717801,15.4679633 L9.26223029,15.4679633 C10.8465433,15.4657443 11.1503813,15.4546321 11.934546,15.4188487 C12.7633176,15.3810576 13.2134025,15.2425804 13.5129304,15.1261704 C13.9097029,14.9719693 14.192866,14.7877716 14.4903019,14.4903019 C14.7877716,14.192866 14.9719693,13.9097029 15.1261704,13.5129304 C15.2425804,13.2134025 15.3810576,12.7633176 15.4188487,11.934546 C15.4546321,11.1502632 15.4657443,10.8463846 15.4679633,9.26217632 L15.4679633,7.7372306 C15.4657443,6.15299968 15.4546321,5.84912111 15.4188487,5.06483835 C15.3810576,4.23606673 15.2425804,3.78598186 15.1261704,3.4864539 C14.9719693,3.08968143 14.7877716,2.80651835 14.4903019,2.5090824 C14.192866,2.21161271 13.9097029,2.02741499 13.5129304,1.87321394 C13.2134025,1.75680395 12.7633176,1.61832668 11.934546,1.58053561 C11.1502632,1.54475219 10.8463846,1.53363999 9.26217632,1.53142106 Z M8.49970903,4.13467195 C10.9104418,4.13467195 12.8647124,6.08894256 12.8647124,8.49970903 C12.8647124,10.9104418 10.9104418,12.8647124 8.49970903,12.8647124 C6.08894256,12.8647124 4.13467195,10.9104418 4.13467195,8.49970903 C4.13467195,6.08894256 6.08894256,4.13467195 8.49970903,4.13467195 Z M8.49970903,5.66625621 C6.93482139,5.66625621 5.66625621,6.93482139 5.66625621,8.49970903 C5.66625621,10.0645629 6.93482139,11.3331281 8.49970903,11.3331281 C10.0645629,11.3331281 11.3331281,10.0645629 11.3331281,8.49970903 C11.3331281,6.93482139 10.0645629,5.66625621 8.49970903,5.66625621 Z M13.0371679,2.94216129 C13.6005247,2.94216129 14.057223,3.3988596 14.057223,3.96221645 C14.057223,4.52557331 13.6005247,4.98223787 13.0371679,4.98223787 C12.4738447,4.98223787 12.0171464,4.52557331 12.0171464,3.96221645 C12.0171464,3.3988596 12.4738447,2.94216129 13.0371679,2.94216129 Z" id="Instagram"></path>
            </g>
        </g>
    </g>
</svg>