<svg width="369px" height="241px" viewBox="0 0 369 241" version="1.1" xmlns="http://www.w3.org/2000/svg" xmlns:xlink="http://www.w3.org/1999/xlink">
    <!-- Generator: Sketch 59.1 (86144) - https://sketch.com -->
    <g id="Symbols" stroke="none" stroke-width="1" fill="none" fill-rule="evenodd">
        <g id="MainLogo" transform="translate(-1.000000, 0.000000)" fill="#1D1D1B" fill-rule="nonzero">
            <g id="VRG-Black" transform="translate(1.000000, 0.000000)">
                <polygon id="Path" points="177.096063 0.0696768707 202.622389 60.1434354 228.624158 0.0737755102"></polygon>
                <path d="M87.118631,27.2559524 C86.824775,25.6056834 86.6841395,23.9317781 86.6985204,22.2556122 C86.6985204,13.3902551 98.7300765,10.2465986 107.451981,9.12971939 C110.101069,8.90019558 113.048673,8.69526361 116.294796,8.51492347 L116.294796,0.0696768707 L0.0983673469,0.0696768707 L0.0983673469,8.52107143 C8.1030102,9.19734694 13.9948044,11.3682596 17.77375,15.0338095 C21.5526956,18.6993594 25.247619,24.7045493 28.8585204,33.0493793 L118.003929,240.610629 L125.213435,240.610629 L151.444728,179.850349 L88.7355442,32.2603912 C88.0078345,30.6592317 87.4653492,28.9802086 87.118631,27.2559524 Z" id="Path"></path>
               
            </g>
        </g>
    </g>
</svg>
          